0
SECTION
2
HEADER
9
$ACADVER
1
AC1009
9
$INSBASE
10
0
20
0
30
0
9
$EXTMIN
10
17.692408895
20
14.716110717
30
0
9
$EXTMAX
10
377.942286341
20
289.641016151
30
0
9
$LIMMIN
10
0
20
0
9
$LIMMAX
10
400
20
300
0
ENDSEC
0
SECTION
2
TABLES
0
TABLE
2
LTYPE
70
1
0
LTYPE
2
CONTINUOUS
70
0
3
Solid line
72
65
73
0
40
0
0
ENDTAB
0
TABLE
2
LAYER
70
3
0
LAYER
2
0
70
0
62
7
6
CONTINUOUS
0
LAYER
2
DECUPARE
70
0
62
1
6
CONTINUOUS
0
LAYER
2
GRAVARE
70
0
62
5
6
CONTINUOUS
0
ENDTAB
0
TABLE
2
STYLE
70
1
0
STYLE
2
STANDARD
70
0
40
0
41
1
50
0
71
0
42
2.5
3
txt
4

0
ENDTAB
0
ENDSEC
0
SECTION
2
BLOCKS
0
ENDSEC
0
SECTION
2
ENTITIES
0
CIRCLE
8
DECUPARE
10
70
20
227
30
0
40
50
0
POLYLINE
8
DECUPARE
66
1
10
0
20
0
30
0
70
1
0
VERTEX
8
DECUPARE
10
217.057713659
20
111.698729811
30
0
70
0
0
VERTEX
8
DECUPARE
10
372.942286341
20
201.698729811
30
0
42
0.414213562
70
0
0
VERTEX
8
DECUPARE
10
376.602540378
20
215.358983849
30
0
70
0
0
VERTEX
8
DECUPARE
10
336.602540378
20
284.641016151
30
0
42
0.414213562
70
0
0
VERTEX
8
DECUPARE
10
322.942286341
20
288.301270189
30
0
70
0
0
VERTEX
8
DECUPARE
10
167.057713659
20
198.301270189
30
0
42
0.414213562
70
0
0
VERTEX
8
DECUPARE
10
163.397459622
20
184.641016151
30
0
70
0
0
VERTEX
8
DECUPARE
10
203.397459622
20
115.358983849
30
0
42
0.414213562
70
0
0
SEQEND
8
DECUPARE
0
POLYLINE
8
DECUPARE
66
1
10
0
20
0
30
0
70
1
0
VERTEX
8
DECUPARE
10
131.381557247
20
115.5212086
30
0
42
0.02466226
70
0
0
VERTEX
8
DECUPARE
10
130.807800964
20
116.884421261
30
0
42
0.023970512
70
0
0
VERTEX
8
DECUPARE
10
130.104349547
20
118.185572875
30
0
42
0.023939515
70
0
0
VERTEX
8
DECUPARE
10
129.256706036
20
119.447648626
30
0
42
0.022102906
70
0
0
VERTEX
8
DECUPARE
10
128.296456837
20
120.62664741
30
0
42
0.022062701
70
0
0
VERTEX
8
DECUPARE
10
127.181740799
20
121.772067767
30
0
42
0.019617599
70
0
0
VERTEX
8
DECUPARE
10
125.975290114
20
122.820923321
30
0
42
0.019587251
70
0
0
VERTEX
8
DECUPARE
10
124.604672161
20
123.835528711
30
0
42
0.017044216
70
0
0
VERTEX
8
DECUPARE
10
123.16320348
20
124.747268532
30
0
42
0.017028276
70
0
0
VERTEX
8
DECUPARE
10
121.551385276
20
125.619125148
30
0
42
0.014701887
70
0
0
VERTEX
8
DECUPARE
10
119.887278869
20
126.387131286
30
0
42
0.014696427
70
0
0
VERTEX
8
DECUPARE
10
118.051608513
20
127.106720913
30
0
42
0.012714469
70
0
0
VERTEX
8
DECUPARE
10
116.179065224
20
127.724718807
30
0
42
0.012714519
70
0
0
VERTEX
8
DECUPARE
10
114.138921014
20
128.284780612
30
0
42
0.011091511
70
0
0
VERTEX
8
DECUPARE
10
112.07427467
20
128.747149397
30
0
42
0.011093757
70
0
0
VERTEX
8
DECUPARE
10
109.850701775
20
129.14245682
30
0
42
0.009793737
70
0
0
VERTEX
8
DECUPARE
10
107.612438584
20
129.444576491
30
0
42
0.009796486
70
0
0
VERTEX
8
DECUPARE
10
105.227923361
20
129.671763908
30
0
42
0.008769017
70
0
0
VERTEX
8
DECUPARE
10
102.836526887
20
129.810283483
30
0
42
0.008771556
70
0
0
VERTEX
8
DECUPARE
10
100.314819487
20
129.867735992
30
0
42
0.007968078
70
0
0
VERTEX
8
DECUPARE
10
97.792534219
20
129.840748416
30
0
42
0.007970176
70
0
0
VERTEX
8
DECUPARE
10
95.158473649
20
129.728535276
30
0
42
0.007349793
70
0
0
VERTEX
8
DECUPARE
10
92.529036986
20
129.535677896
30
0
42
0.007351423
70
0
0
VERTEX
8
DECUPARE
10
89.808361105
20
129.255508063
30
0
42
0.006881954
70
0
0
VERTEX
8
DECUPARE
10
87.096725546
20
128.898009919
30
0
42
0.013711043
70
0
0
VERTEX
8
DECUPARE
10
81.487051472
20
127.921976154
30
0
42
0.012562821
70
0
0
VERTEX
8
DECUPARE
10
75.936046494
20
126.652589911
30
0
42
0.012571399
70
0
0
VERTEX
8
DECUPARE
10
70.294865899
20
125.060468854
30
0
42
0.012212419
70
0
0
VERTEX
8
DECUPARE
10
64.7393957
20
123.190778624
30
0
42
0.012212419
70
0
0
VERTEX
8
DECUPARE
10
59.281844911
20
121.052057025
30
0
42
0.012571399
70
0
0
VERTEX
8
DECUPARE
10
53.937054176
20
118.645611523
30
0
42
0.012562821
70
0
0
VERTEX
8
DECUPARE
10
48.868791909
20
116.049900579
30
0
42
0.013711043
70
0
0
VERTEX
8
DECUPARE
10
43.944149847
20
113.191756833
30
0
42
0.006881954
70
0
0
VERTEX
8
DECUPARE
10
41.637121117
20
111.72261056
30
0
42
0.007351423
70
0
0
VERTEX
8
DECUPARE
10
39.372872779
20
110.188416357
30
0
42
0.007349793
70
0
0
VERTEX
8
DECUPARE
10
37.234641102
20
108.645984374
30
0
42
0.007970176
70
0
0
VERTEX
8
DECUPARE
10
35.144704423
20
107.038803129
30
0
42
0.007968078
70
0
0
VERTEX
8
DECUPARE
10
33.19517453
20
105.438183093
30
0
42
0.008771556
70
0
0
VERTEX
8
DECUPARE
10
31.30036435
20
103.773249646
30
0
42
0.008769017
70
0
0
VERTEX
8
DECUPARE
10
29.557487036
20
102.129977471
30
0
42
0.009796486
70
0
0
VERTEX
8
DECUPARE
10
27.876875657
20
100.423204973
30
0
42
0.009793737
70
0
0
VERTEX
8
DECUPARE
10
26.356465358
20
98.753040031
30
0
42
0.011093757
70
0
0
VERTEX
8
DECUPARE
10
24.907208412
20
97.020931871
30
0
42
0.011091511
70
0
0
VERTEX
8
DECUPARE
10
23.622802479
20
95.339607745
30
0
42
0.012714519
70
0
0
VERTEX
8
DECUPARE
10
22.419962133
20
93.599196091
30
0
42
0.012714469
70
0
0
VERTEX
8
DECUPARE
10
21.382752141
20
91.922134613
30
0
42
0.014696427
70
0
0
VERTEX
8
DECUPARE
10
20.439090362
20
90.190950818
30
0
42
0.014701887
70
0
0
VERTEX
8
DECUPARE
10
19.657975725
20
88.532957004
30
0
42
0.017028276
70
0
0
VERTEX
8
DECUPARE
10
18.983669977
20
86.829019317
30
0
42
0.017044216
70
0
0
VERTEX
8
DECUPARE
10
18.465495964
20
85.204027886
30
0
42
0.019587251
70
0
0
VERTEX
8
DECUPARE
10
18.067717471
20
83.545778827
30
0
42
0.019617599
70
0
0
VERTEX
8
DECUPARE
10
17.817713982
20
81.966817307
30
0
42
0.022062701
70
0
0
VERTEX
8
DECUPARE
10
17.700053969
20
80.372848749
30
0
42
0.022102906
70
0
0
VERTEX
8
DECUPARE
10
17.722306217
20
78.852446995
30
0
42
0.023939515
70
0
0
VERTEX
8
DECUPARE
10
17.88422027
20
77.340786133
30
0
42
0.023970512
70
0
0
VERTEX
8
DECUPARE
10
18.181709357
20
75.891876314
30
0
42
0.02466226
70
0
0
VERTEX
8
DECUPARE
10
18.618442753
20
74.4787914
30
0
42
0.02466226
70
0
0
VERTEX
8
DECUPARE
10
19.192199036
20
73.115578739
30
0
42
0.023970512
70
0
0
VERTEX
8
DECUPARE
10
19.895650453
20
71.814427125
30
0
42
0.023939515
70
0
0
VERTEX
8
DECUPARE
10
20.743293964
20
70.552351374
30
0
42
0.022102906
70
0
0
VERTEX
8
DECUPARE
10
21.703543163
20
69.37335259
30
0
42
0.022062701
70
0
0
VERTEX
8
DECUPARE
10
22.818259201
20
68.227932233
30
0
42
0.019617599
70
0
0
VERTEX
8
DECUPARE
10
24.024709886
20
67.179076679
30
0
42
0.019587251
70
0
0
VERTEX
8
DECUPARE
10
25.395327839
20
66.164471289
30
0
42
0.017044216
70
0
0
VERTEX
8
DECUPARE
10
26.83679652
20
65.252731468
30
0
42
0.017028276
70
0
0
VERTEX
8
DECUPARE
10
28.448614724
20
64.380874852
30
0
42
0.014701887
70
0
0
VERTEX
8
DECUPARE
10
30.112721131
20
63.612868714
30
0
42
0.014696427
70
0
0
VERTEX
8
DECUPARE
10
31.948391487
20
62.893279087
30
0
42
0.012714469
70
0
0
VERTEX
8
DECUPARE
10
33.820934776
20
62.275281193
30
0
42
0.012714519
70
0
0
VERTEX
8
DECUPARE
10
35.861078986
20
61.715219388
30
0
42
0.011091511
70
0
0
VERTEX
8
DECUPARE
10
37.92572533
20
61.252850603
30
0
42
0.011093757
70
0
0
VERTEX
8
DECUPARE
10
40.149298225
20
60.85754318
30
0
42
0.009793737
70
0
0
VERTEX
8
DECUPARE
10
42.387561416
20
60.555423509
30
0
42
0.009796486
70
0
0
VERTEX
8
DECUPARE
10
44.772076639
20
60.328236092
30
0
42
0.008769017
70
0
0
VERTEX
8
DECUPARE
10
47.163473113
20
60.189716517
30
0
42
0.008771556
70
0
0
VERTEX
8
DECUPARE
10
49.685180513
20
60.132264008
30
0
42
0.007968078
70
0
0
VERTEX
8
DECUPARE
10
52.207465781
20
60.159251584
30
0
42
0.007970176
70
0
0
VERTEX
8
DECUPARE
10
54.841526351
20
60.271464724
30
0
42
0.007349793
70
0
0
VERTEX
8
DECUPARE
10
57.470963014
20
60.464322104
30
0
42
0.007351423
70
0
0
VERTEX
8
DECUPARE
10
60.191638895
20
60.744491937
30
0
42
0.006881954
70
0
0
VERTEX
8
DECUPARE
10
62.903274454
20
61.101990081
30
0
42
0.013711043
70
0
0
VERTEX
8
DECUPARE
10
68.512948528
20
62.078023846
30
0
42
0.012562821
70
0
0
VERTEX
8
DECUPARE
10
74.063953506
20
63.347410089
30
0
42
0.012571399
70
0
0
VERTEX
8
DECUPARE
10
79.705134101
20
64.939531146
30
0
42
0.012212419
70
0
0
VERTEX
8
DECUPARE
10
85.2606043
20
66.809221376
30
0
42
0.012212419
70
0
0
VERTEX
8
DECUPARE
10
90.718155089
20
68.947942975
30
0
42
0.012571399
70
0
0
VERTEX
8
DECUPARE
10
96.062945824
20
71.354388477
30
0
42
0.012562821
70
0
0
VERTEX
8
DECUPARE
10
101.131208091
20
73.950099421
30
0
42
0.013711043
70
0
0
VERTEX
8
DECUPARE
10
106.055850153
20
76.808243167
30
0
42
0.006881954
70
0
0
VERTEX
8
DECUPARE
10
108.362878883
20
78.27738944
30
0
42
0.007351423
70
0
0
VERTEX
8
DECUPARE
10
110.627127221
20
79.811583643
30
0
42
0.007349793
70
0
0
VERTEX
8
DECUPARE
10
112.765358898
20
81.354015626
30
0
42
0.007970176
70
0
0
VERTEX
8
DECUPARE
10
114.855295577
20
82.961196871
30
0
42
0.007968078
70
0
0
VERTEX
8
DECUPARE
10
116.80482547
20
84.561816907
30
0
42
0.008771556
70
0
0
VERTEX
8
DECUPARE
10
118.69963565
20
86.226750354
30
0
42
0.008769017
70
0
0
VERTEX
8
DECUPARE
10
120.442512964
20
87.870022529
30
0
42
0.009796486
70
0
0
VERTEX
8
DECUPARE
10
122.123124343
20
89.576795027
30
0
42
0.009793737
70
0
0
VERTEX
8
DECUPARE
10
123.643534642
20
91.246959969
30
0
42
0.011093757
70
0
0
VERTEX
8
DECUPARE
10
125.092791588
20
92.979068129
30
0
42
0.011091511
70
0
0
VERTEX
8
DECUPARE
10
126.377197521
20
94.660392255
30
0
42
0.012714519
70
0
0
VERTEX
8
DECUPARE
10
127.580037867
20
96.400803909
30
0
42
0.012714469
70
0
0
VERTEX
8
DECUPARE
10
128.617247859
20
98.077865387
30
0
42
0.014696427
70
0
0
VERTEX
8
DECUPARE
10
129.560909638
20
99.809049182
30
0
42
0.014701887
70
0
0
VERTEX
8
DECUPARE
10
130.342024275
20
101.467042996
30
0
42
0.017028276
70
0
0
VERTEX
8
DECUPARE
10
131.016330023
20
103.170980683
30
0
42
0.017044216
70
0
0
VERTEX
8
DECUPARE
10
131.534504036
20
104.795972114
30
0
42
0.019587251
70
0
0
VERTEX
8
DECUPARE
10
131.932282529
20
106.454221173
30
0
42
0.019617599
70
0
0
VERTEX
8
DECUPARE
10
132.182286018
20
108.033182693
30
0
42
0.022062701
70
0
0
VERTEX
8
DECUPARE
10
132.299946031
20
109.627151251
30
0
42
0.022102906
70
0
0
VERTEX
8
DECUPARE
10
132.277693783
20
111.147553005
30
0
42
0.023939515
70
0
0
VERTEX
8
DECUPARE
10
132.11577973
20
112.659213867
30
0
42
0.023970512
70
0
0
VERTEX
8
DECUPARE
10
131.818290643
20
114.108123686
30
0
42
0.02466226
70
0
0
SEQEND
8
DECUPARE
0
POLYLINE
8
GRAVARE
66
1
10
0
20
0
30
0
70
0
0
VERTEX
8
GRAVARE
10
160
20
60
30
0
42
-0.011383326
70
0
0
VERTEX
8
GRAVARE
10
162.280180736
20
62.61290432
30
0
42
-0.013549361
70
0
0
VERTEX
8
GRAVARE
10
164.6875
20
65.108642578
30
0
42
-0.013264805
70
0
0
VERTEX
8
GRAVARE
10
166.972124038
20
67.236156261
30
0
42
-0.015505493
70
0
0
VERTEX
8
GRAVARE
10
169.375
20
69.228515625
30
0
42
-0.015162154
70
0
0
VERTEX
8
GRAVARE
10
171.667135643
20
70.903038953
30
0
42
-0.017216026
70
0
0
VERTEX
8
GRAVARE
10
174.0625
20
72.425537109
30
0
42
-0.016805091
70
0
0
VERTEX
8
GRAVARE
10
176.365254328
20
73.678015153
30
0
42
-0.0183292
70
0
0
VERTEX
8
GRAVARE
10
178.75
20
74.765625
30
0
42
-0.017844815
70
0
0
VERTEX
8
GRAVARE
10
181.065618928
20
75.625485032
30
0
42
-0.018539642
70
0
0
VERTEX
8
GRAVARE
10
183.4375
20
76.314697266
30
0
42
-0.017987891
70
0
0
VERTEX
8
GRAVARE
10
185.766500494
20
76.810477782
30
0
42
-0.017753933
70
0
0
VERTEX
8
GRAVARE
10
188.125
20
77.138671875
30
0
42
-0.017158474
70
0
0
VERTEX
8
GRAVARE
10
190.465925891
20
77.299154661
30
0
42
-0.016149881
70
0
0
VERTEX
8
GRAVARE
10
192.8125
20
77.303466797
30
0
42
-0.015543587
70
0
0
VERTEX
8
GRAVARE
10
195.162492188
20
77.158656004
30
0
42
-0.014066247
70
0
0
VERTEX
8
GRAVARE
10
197.5
20
76.875
30
0
42
-0.013476042
70
0
0
VERTEX
8
GRAVARE
10
199.855749518
20
76.456441217
30
0
42
-0.011832604
70
0
0
VERTEX
8
GRAVARE
10
202.1875
20
75.919189453
30
0
42
-0.011272277
70
0
0
VERTEX
8
GRAVARE
10
204.546013599
20
75.259685692
30
0
42
-0.009670773
70
0
0
VERTEX
8
GRAVARE
10
206.875
20
74.501953125
30
0
42
-0.009143329
70
0
0
VERTEX
8
GRAVARE
10
209.233948361
20
73.635052656
30
0
42
-0.007687225
70
0
0
VERTEX
8
GRAVARE
10
211.5625
20
72.689208984
30
0
42
-0.00718988
70
0
0
VERTEX
8
GRAVARE
10
213.920240763
20
71.648758398
30
0
42
-0.005907553
70
0
0
VERTEX
8
GRAVARE
10
216.25
20
70.546875
30
0
42
-0.005435233
70
0
0
VERTEX
8
GRAVARE
10
218.605451485
20
69.366732616
30
0
42
-0.004312755
70
0
0
VERTEX
8
GRAVARE
10
220.9375
20
68.140869141
30
0
42
-0.003859761
70
0
0
VERTEX
8
GRAVARE
10
223.289987383
20
66.854755986
30
0
42
-0.002863582
70
0
0
VERTEX
8
GRAVARE
10
225.625
20
65.537109375
30
0
42
-0.002424213
70
0
0
VERTEX
8
GRAVARE
10
227.974127612
20
64.178545481
30
0
42
-0.001513502
70
0
0
VERTEX
8
GRAVARE
10
230.3125
20
62.801513672
30
0
42
-0.001082215
70
0
0
VERTEX
8
GRAVARE
10
232.658063472
20
61.403797131
30
0
42
-0.000214305
70
0
0
VERTEX
8
GRAVARE
10
235
20
60
30
0
42
0.000214305
70
0
0
VERTEX
8
GRAVARE
10
237.341936528
20
58.596202869
30
0
42
0.001082215
70
0
0
VERTEX
8
GRAVARE
10
239.6875
20
57.198486328
30
0
42
0.001513502
70
0
0
VERTEX
8
GRAVARE
10
242.025872388
20
55.821454519
30
0
42
0.002424213
70
0
0
VERTEX
8
GRAVARE
10
244.375
20
54.462890625
30
0
42
0.002863582
70
0
0
VERTEX
8
GRAVARE
10
246.710012617
20
53.145244014
30
0
42
0.003859761
70
0
0
VERTEX
8
GRAVARE
10
249.0625
20
51.859130859
30
0
42
0.004312755
70
0
0
VERTEX
8
GRAVARE
10
251.394548515
20
50.633267384
30
0
42
0.005435233
70
0
0
VERTEX
8
GRAVARE
10
253.75
20
49.453125
30
0
42
0.005907553
70
0
0
VERTEX
8
GRAVARE
10
256.079759237
20
48.351241602
30
0
42
0.00718988
70
0
0
VERTEX
8
GRAVARE
10
258.4375
20
47.310791016
30
0
42
0.007687225
70
0
0
VERTEX
8
GRAVARE
10
260.766051639
20
46.364947344
30
0
42
0.009143329
70
0
0
VERTEX
8
GRAVARE
10
263.125
20
45.498046875
30
0
42
0.009670773
70
0
0
VERTEX
8
GRAVARE
10
265.453986401
20
44.740314308
30
0
42
0.011272277
70
0
0
VERTEX
8
GRAVARE
10
267.8125
20
44.080810547
30
0
42
0.011832604
70
0
0
VERTEX
8
GRAVARE
10
270.144250482
20
43.543558783
30
0
42
0.013476042
70
0
0
VERTEX
8
GRAVARE
10
272.5
20
43.125
30
0
42
0.014066247
70
0
0
VERTEX
8
GRAVARE
10
274.837507812
20
42.841343996
30
0
42
0.015543587
70
0
0
VERTEX
8
GRAVARE
10
277.1875
20
42.696533203
30
0
42
0.016149881
70
0
0
VERTEX
8
GRAVARE
10
279.534074109
20
42.700845339
30
0
42
0.017158474
70
0
0
VERTEX
8
GRAVARE
10
281.875
20
42.861328125
30
0
42
0.017753933
70
0
0
VERTEX
8
GRAVARE
10
284.233499506
20
43.189522218
30
0
42
0.017987891
70
0
0
VERTEX
8
GRAVARE
10
286.5625
20
43.685302734
30
0
42
0.018539642
70
0
0
VERTEX
8
GRAVARE
10
288.934381072
20
44.374514968
30
0
42
0.017844815
70
0
0
VERTEX
8
GRAVARE
10
291.25
20
45.234375
30
0
42
0.0183292
70
0
0
VERTEX
8
GRAVARE
10
293.634745672
20
46.321984847
30
0
42
0.016805091
70
0
0
VERTEX
8
GRAVARE
10
295.9375
20
47.574462891
30
0
42
0.017216026
70
0
0
VERTEX
8
GRAVARE
10
298.332864357
20
49.096961047
30
0
42
0.015162154
70
0
0
VERTEX
8
GRAVARE
10
300.625
20
50.771484375
30
0
42
0.015505493
70
0
0
VERTEX
8
GRAVARE
10
303.027875962
20
52.763843739
30
0
42
0.013264805
70
0
0
VERTEX
8
GRAVARE
10
305.3125
20
54.891357422
30
0
42
0.013549361
70
0
0
VERTEX
8
GRAVARE
10
307.719819264
20
57.38709568
30
0
42
0.011383326
70
0
0
VERTEX
8
GRAVARE
10
310
20
60
30
0
70
0
0
SEQEND
8
GRAVARE
0
POLYLINE
8
GRAVARE
66
1
10
0
20
0
30
0
70
1
0
VERTEX
8
GRAVARE
10
31.242015614
20
33.083747339
30
0
42
0.020835302
70
0
0
VERTEX
8
GRAVARE
10
30.435655958
20
33.050131251
30
0
42
0.025687904
70
0
0
VERTEX
8
GRAVARE
10
29.636266856
20
32.941802697
30
0
42
0.025814757
70
0
0
VERTEX
8
GRAVARE
10
28.918991988
20
32.768039157
30
0
42
0.029722455
70
0
0
VERTEX
8
GRAVARE
10
28.22569198
20
32.515968772
30
0
42
0.02694277
70
0
0
VERTEX
8
GRAVARE
10
27.602868711
20
32.205821997
30
0
42
0.029571554
70
0
0
VERTEX
8
GRAVARE
10
27.019162527
20
31.82753726
30
0
42
0.029622183
70
0
0
VERTEX
8
GRAVARE
10
26.49499024
20
31.391938328
30
0
42
0.029220512
70
0
0
VERTEX
8
GRAVARE
10
26.025550035
20
30.897799858
30
0
42
0.027722078
70
0
0
VERTEX
8
GRAVARE
10
25.605261433
20
30.340227183
30
0
42
0.025612492
70
0
0
VERTEX
8
GRAVARE
10
25.246628815
20
29.740951029
30
0
42
0.025521637
70
0
0
VERTEX
8
GRAVARE
10
24.932968563
20
29.069524146
30
0
42
0.021877677
70
0
0
VERTEX
8
GRAVARE
10
24.684173172
20
28.371185238
30
0
42
0.021499788
70
0
0
VERTEX
8
GRAVARE
10
24.482520045
20
27.599204417
30
0
42
0.018717421
70
0
0
VERTEX
8
GRAVARE
10
24.343506033
20
26.813342796
30
0
42
0.018678017
70
0
0
VERTEX
8
GRAVARE
10
24.257108472
20
25.954845239
30
0
42
0.015738475
70
0
0
VERTEX
8
GRAVARE
10
24.229950319
20
25.092264017
30
0
42
0.016987642
70
0
0
VERTEX
8
GRAVARE
10
24.25936602
20
24.22671681
30
0
42
0.019844637
70
0
0
VERTEX
8
GRAVARE
10
24.352377573
20
23.365862314
30
0
42
0.019889918
70
0
0
VERTEX
8
GRAVARE
10
24.502821765
20
22.571124988
30
0
42
0.022301512
70
0
0
VERTEX
8
GRAVARE
10
24.719659333
20
21.7920511
30
0
42
0.021283804
70
0
0
VERTEX
8
GRAVARE
10
24.985853179
20
21.081861984
30
0
42
0.024547866
70
0
0
VERTEX
8
GRAVARE
10
25.315826828
20
20.399219304
30
0
42
0.02462312
70
0
0
VERTEX
8
GRAVARE
10
25.690146316
20
19.786742771
30
0
42
0.026483785
70
0
0
VERTEX
8
GRAVARE
10
26.124911285
20
19.215755855
30
0
42
0.027898801
70
0
0
VERTEX
8
GRAVARE
10
26.607108316
20
18.707925908
30
0
42
0.02851464
70
0
0
VERTEX
8
GRAVARE
10
27.143364088
20
18.257629524
30
0
42
0.028482644
70
0
0
VERTEX
8
GRAVARE
10
27.735760346
20
17.865669398
30
0
42
0.026352664
70
0
0
VERTEX
8
GRAVARE
10
28.367636622
20
17.540809084
30
0
42
0.029460692
70
0
0
VERTEX
8
GRAVARE
10
29.060218075
20
17.27752088
30
0
42
0.026866272
70
0
0
VERTEX
8
GRAVARE
10
29.778211498
20
17.093683463
30
0
42
0.026748997
70
0
0
VERTEX
8
GRAVARE
10
30.563053844
20
16.980316363
30
0
42
0.022495857
70
0
0
VERTEX
8
GRAVARE
10
31.355571327
20
16.94464159
30
0
42
0.032917409
70
0
0
VERTEX
8
GRAVARE
10
32.429323931
20
17.015408577
30
0
42
0.044212872
70
0
0
VERTEX
8
GRAVARE
10
33.477643719
20
17.249822569
30
0
42
0.036937868
70
0
0
VERTEX
8
GRAVARE
10
34.377444591
20
17.611512562
30
0
42
0.041291934
70
0
0
VERTEX
8
GRAVARE
10
35.209368346
20
18.108587651
30
0
42
0.034913289
70
0
0
VERTEX
8
GRAVARE
10
35.946090887
20
18.717765525
30
0
42
0.033278985
70
0
0
VERTEX
8
GRAVARE
10
36.593328602
20
19.421575586
30
0
42
0.027471383
70
0
0
VERTEX
8
GRAVARE
10
37.176241785
20
20.234491169
30
0
42
0.024348772
70
0
0
VERTEX
8
GRAVARE
10
37.672107878
20
21.103619588
30
0
70
0
0
VERTEX
8
GRAVARE
10
39.886444287
20
19.996451384
30
0
42
-0.030228126
70
0
0
VERTEX
8
GRAVARE
10
39.282141345
20
18.913002843
30
0
42
-0.02993544
70
0
0
VERTEX
8
GRAVARE
10
38.552164656
20
17.909865153
30
0
42
-0.03816096
70
0
0
VERTEX
8
GRAVARE
10
37.681304472
20
17.003112086
30
0
42
-0.036106254
70
0
0
VERTEX
8
GRAVARE
10
36.685592619
20
16.234918382
30
0
42
-0.040423933
70
0
0
VERTEX
8
GRAVARE
10
35.513756064
20
15.588433733
30
0
42
-0.033341573
70
0
0
VERTEX
8
GRAVARE
10
34.258339248
20
15.120652945
30
0
42
-0.021191648
70
0
0
VERTEX
8
GRAVARE
10
33.546687103
20
14.940727589
30
0
42
-0.018141075
70
0
0
VERTEX
8
GRAVARE
10
32.82292406
20
14.817246274
30
0
42
-0.018105146
70
0
0
VERTEX
8
GRAVARE
10
32.027131163
20
14.740214122
30
0
42
-0.015074206
70
0
0
VERTEX
8
GRAVARE
10
31.22782115
20
14.716110717
30
0
42
-0.019884685
70
0
0
VERTEX
8
GRAVARE
10
30.084979201
20
14.761578799
30
0
42
-0.025123321
70
0
0
VERTEX
8
GRAVARE
10
28.95138396
20
14.909510291
30
0
42
-0.025251217
70
0
0
VERTEX
8
GRAVARE
10
27.947665326
20
15.145045427
30
0
42
-0.0300453
70
0
0
VERTEX
8
GRAVARE
10
26.976579134
20
15.489709013
30
0
42
-0.025221197
70
0
0
VERTEX
8
GRAVARE
10
26.114134719
20
15.907978372
30
0
42
-0.028357783
70
0
0
VERTEX
8
GRAVARE
10
25.301632363
20
16.4158978
30
0
42
-0.028434319
70
0
0
VERTEX
8
GRAVARE
10
24.577780787
20
16.992023559
30
0
42
-0.029010648
70
0
0
VERTEX
8
GRAVARE
10
23.92476934
20
17.647267566
30
0
42
-0.027434131
70
0
0
VERTEX
8
GRAVARE
10
23.34722935
20
18.375005834
30
0
42
-0.026493644
70
0
0
VERTEX
8
GRAVARE
10
22.851312988
20
19.160752307
30
0
42
-0.026424534
70
0
0
VERTEX
8
GRAVARE
10
22.424764143
20
20.027800518
30
0
42
-0.023464107
70
0
0
VERTEX
8
GRAVARE
10
22.086586231
20
20.933286018
30
0
42
-0.021650639
70
0
0
VERTEX
8
GRAVARE
10
21.816687742
20
21.91915141
30
0
42
-0.019554634
70
0
0
VERTEX
8
GRAVARE
10
21.628814762
20
22.924059617
30
0
42
-0.019514512
70
0
0
VERTEX
8
GRAVARE
10
21.513016104
20
24.005278544
30
0
42
-0.016918947
70
0
0
VERTEX
8
GRAVARE
10
21.476224273
20
25.092264017
30
0
42
-0.017227791
70
0
0
VERTEX
8
GRAVARE
10
21.514738774
20
26.209733791
30
0
42
-0.02065545
70
0
0
VERTEX
8
GRAVARE
10
21.637686302
20
27.32079489
30
0
42
-0.020712743
70
0
0
VERTEX
8
GRAVARE
10
21.835324377
20
28.332434851
30
0
42
-0.023822225
70
0
0
VERTEX
8
GRAVARE
10
22.122072392
20
29.322214336
30
0
42
-0.023458968
70
0
0
VERTEX
8
GRAVARE
10
22.475566559
20
30.216233142
30
0
42
-0.026883691
70
0
0
VERTEX
8
GRAVARE
10
22.916962385
20
31.069907736
30
0
42
-0.026971058
70
0
0
VERTEX
8
GRAVARE
10
23.422857905
20
31.833907623
30
0
42
-0.028370383
70
0
0
VERTEX
8
GRAVARE
10
24.009936125
20
32.537260468
30
0
42
-0.029033177
70
0
0
VERTEX
8
GRAVARE
10
24.669048478
20
33.164323686
30
0
42
-0.028348193
70
0
0
VERTEX
8
GRAVARE
10
25.395670688
20
33.711852378
30
0
42
-0.028268741
70
0
0
VERTEX
8
GRAVARE
10
26.208912093
20
34.191134502
30
0
42
-0.02506644
70
0
0
VERTEX
8
GRAVARE
10
27.068843151
20
34.581263307
30
0
42
-0.027465542
70
0
0
VERTEX
8
GRAVARE
10
28.027218218
20
34.899779786
30
0
42
-0.023678742
70
0
0
VERTEX
8
GRAVARE
10
29.013484741
20
35.118878637
30
0
42
-0.023583497
70
0
0
VERTEX
8
GRAVARE
10
30.109512071
20
35.255590405
30
0
42
-0.019236055
70
0
0
VERTEX
8
GRAVARE
10
31.213626686
20
35.298083747
30
0
42
-0.012204621
70
0
0
VERTEX
8
GRAVARE
10
31.980319835
20
35.27936656
30
0
42
-0.01433126
70
0
0
VERTEX
8
GRAVARE
10
32.744854507
20
35.220014194
30
0
42
-0.014345168
70
0
0
VERTEX
8
GRAVARE
10
33.448492465
20
35.124566775
30
0
42
-0.016599153
70
0
0
VERTEX
8
GRAVARE
10
34.144783534
20
34.985805536
30
0
42
-0.033520345
70
0
0
VERTEX
8
GRAVARE
10
35.383367436
20
34.606842513
30
0
42
-0.040954615
70
0
0
VERTEX
8
GRAVARE
10
36.550745209
20
34.048970901
30
0
42
-0.041467049
70
0
0
VERTEX
8
GRAVARE
10
37.546351909
20
33.352308405
30
0
42
-0.043159994
70
0
0
VERTEX
8
GRAVARE
10
38.410220014
20
32.498225692
30
0
42
-0.042906925
70
0
0
VERTEX
8
GRAVARE
10
39.140806979
20
31.47284117
30
0
42
-0.035980903
70
0
0
VERTEX
8
GRAVARE
10
39.701916253
20
30.344215756
30
0
70
0
0
VERTEX
8
GRAVARE
10
37.13271824
20
29.492547906
30
0
42
0.034410566
70
0
0
VERTEX
8
GRAVARE
10
36.793883677
20
30.195243583
30
0
42
0.030921398
70
0
0
VERTEX
8
GRAVARE
10
36.366217175
20
30.848119233
30
0
42
0.044476222
70
0
0
VERTEX
8
GRAVARE
10
35.810197835
20
31.468634517
30
0
42
0.03747086
70
0
0
VERTEX
8
GRAVARE
10
35.159687722
20
31.990773598
30
0
42
0.043610168
70
0
0
VERTEX
8
GRAVARE
10
34.342556292
20
32.452456155
30
0
42
0.032424288
70
0
0
VERTEX
8
GRAVARE
10
33.463449255
20
32.785663591
30
0
42
0.022505131
70
0
0
VERTEX
8
GRAVARE
10
32.947363063
20
32.91880079
30
0
42
0.018521844
70
0
0
VERTEX
8
GRAVARE
10
32.421930447
20
33.009226402
30
0
42
0.018483731
70
0
0
VERTEX
8
GRAVARE
10
31.833287268
20
33.066163053
30
0
42
0.0148666
70
0
0
SEQEND
8
GRAVARE
0
POLYLINE
8
GRAVARE
66
1
10
0
20
0
30
0
70
1
0
VERTEX
8
GRAVARE
10
59.616749468
20
15
30
0
70
0
0
VERTEX
8
GRAVARE
10
56.352022711
20
15
30
0
70
0
0
VERTEX
8
GRAVARE
10
45.649396735
20
32.033356991
30
0
42
0.002650431
70
0
0
VERTEX
8
GRAVARE
10
45.681161025
20
31.344733237
30
0
42
0.002755864
70
0
0
VERTEX
8
GRAVARE
10
45.720369056
20
30.656493967
30
0
42
-0.002177398
70
0
0
VERTEX
8
GRAVARE
10
45.747632255
20
30.042682419
30
0
42
-0.001769296
70
0
0
VERTEX
8
GRAVARE
10
45.770049681
20
29.428672818
30
0
42
-0.003042552
70
0
0
VERTEX
8
GRAVARE
10
45.78540286
20
28.857423208
30
0
42
-0.005196279
70
0
0
VERTEX
8
GRAVARE
10
45.791341377
20
28.286018453
30
0
70
0
0
VERTEX
8
GRAVARE
10
45.791341377
20
15
30
0
70
0
0
VERTEX
8
GRAVARE
10
43.37828247
20
15
30
0
70
0
0
VERTEX
8
GRAVARE
10
43.37828247
20
35
30
0
70
0
0
VERTEX
8
GRAVARE
10
46.529453513
20
35
30
0
70
0
0
VERTEX
8
GRAVARE
10
57.345635202
20
17.853087296
30
0
70
0
0
VERTEX
8
GRAVARE
10
57.30305181
20
18.54861604
30
0
70
0
0
VERTEX
8
GRAVARE
10
57.260468417
20
19.244144784
30
0
42
-0.001047408
70
0
0
VERTEX
8
GRAVARE
10
57.230910422
20
19.893490067
30
0
42
-0.00075285
70
0
0
VERTEX
8
GRAVARE
10
57.203690561
20
20.542938254
30
0
42
-0.004562928
70
0
0
VERTEX
8
GRAVARE
10
57.18272478
20
21.213489947
30
0
42
-0.005532679
70
0
0
VERTEX
8
GRAVARE
10
57.175301632
20
21.884315117
30
0
70
0
0
VERTEX
8
GRAVARE
10
57.175301632
20
35
30
0
70
0
0
VERTEX
8
GRAVARE
10
59.616749468
20
35
30
0
70
0
0
SEQEND
8
GRAVARE
0
POLYLINE
8
GRAVARE
66
1
10
0
20
0
30
0
70
1
0
VERTEX
8
GRAVARE
10
73.229240596
20
33.083747339
30
0
42
0.020835302
70
0
0
VERTEX
8
GRAVARE
10
72.422880941
20
33.050131251
30
0
42
0.025687904
70
0
0
VERTEX
8
GRAVARE
10
71.623491838
20
32.941802697
30
0
42
0.025814757
70
0
0
VERTEX
8
GRAVARE
10
70.90621697
20
32.768039157
30
0
42
0.029722455
70
0
0
VERTEX
8
GRAVARE
10
70.212916962
20
32.515968772
30
0
42
0.02694277
70
0
0
VERTEX
8
GRAVARE
10
69.590093694
20
32.205821997
30
0
42
0.029571554
70
0
0
VERTEX
8
GRAVARE
10
69.006387509
20
31.82753726
30
0
42
0.029622183
70
0
0
VERTEX
8
GRAVARE
10
68.482215222
20
31.391938328
30
0
42
0.029220512
70
0
0
VERTEX
8
GRAVARE
10
68.012775018
20
30.897799858
30
0
42
0.027722078
70
0
0
VERTEX
8
GRAVARE
10
67.592486415
20
30.340227183
30
0
42
0.025612492
70
0
0
VERTEX
8
GRAVARE
10
67.233853797
20
29.740951029
30
0
42
0.025521637
70
0
0
VERTEX
8
GRAVARE
10
66.920193545
20
29.069524146
30
0
42
0.021877677
70
0
0
VERTEX
8
GRAVARE
10
66.671398155
20
28.371185238
30
0
42
0.021499788
70
0
0
VERTEX
8
GRAVARE
10
66.469745027
20
27.599204417
30
0
42
0.018717421
70
0
0
VERTEX
8
GRAVARE
10
66.330731015
20
26.813342796
30
0
42
0.018678017
70
0
0
VERTEX
8
GRAVARE
10
66.244333454
20
25.954845239
30
0
42
0.015738475
70
0
0
VERTEX
8
GRAVARE
10
66.217175302
20
25.092264017
30
0
42
0.016987642
70
0
0
VERTEX
8
GRAVARE
10
66.246591002
20
24.22671681
30
0
42
0.019844637
70
0
0
VERTEX
8
GRAVARE
10
66.339602555
20
23.365862314
30
0
42
0.019889918
70
0
0
VERTEX
8
GRAVARE
10
66.490046748
20
22.571124988
30
0
42
0.022301512
70
0
0
VERTEX
8
GRAVARE
10
66.706884315
20
21.7920511
30
0
42
0.021283804
70
0
0
VERTEX
8
GRAVARE
10
66.973078161
20
21.081861984
30
0
42
0.024547866
70
0
0
VERTEX
8
GRAVARE
10
67.30305181
20
20.399219304
30
0
42
0.02462312
70
0
0
VERTEX
8
GRAVARE
10
67.677371298
20
19.786742771
30
0
42
0.026483785
70
0
0
VERTEX
8
GRAVARE
10
68.112136267
20
19.215755855
30
0
42
0.027898801
70
0
0
VERTEX
8
GRAVARE
10
68.594333298
20
18.707925908
30
0
42
0.02851464
70
0
0
VERTEX
8
GRAVARE
10
69.13058907
20
18.257629524
30
0
42
0.028482644
70
0
0
VERTEX
8
GRAVARE
10
69.722985328
20
17.865669398
30
0
42
0.026352664
70
0
0
VERTEX
8
GRAVARE
10
70.354861604
20
17.540809084
30
0
42
0.029460692
70
0
0
VERTEX
8
GRAVARE
10
71.047443058
20
17.27752088
30
0
42
0.026866272
70
0
0
VERTEX
8
GRAVARE
10
71.76543648
20
17.093683463
30
0
42
0.026748997
70
0
0
VERTEX
8
GRAVARE
10
72.550278826
20
16.980316363
30
0
42
0.022495857
70
0
0
VERTEX
8
GRAVARE
10
73.342796309
20
16.94464159
30
0
42
0.032917409
70
0
0
VERTEX
8
GRAVARE
10
74.416548913
20
17.015408577
30
0
42
0.044212872
70
0
0
VERTEX
8
GRAVARE
10
75.464868701
20
17.249822569
30
0
42
0.036937868
70
0
0
VERTEX
8
GRAVARE
10
76.364669573
20
17.611512562
30
0
42
0.041291934
70
0
0
VERTEX
8
GRAVARE
10
77.196593329
20
18.108587651
30
0
42
0.034913289
70
0
0
VERTEX
8
GRAVARE
10
77.933315869
20
18.717765525
30
0
42
0.033278985
70
0
0
VERTEX
8
GRAVARE
10
78.580553584
20
19.421575586
30
0
42
0.027471383
70
0
0
VERTEX
8
GRAVARE
10
79.163466767
20
20.234491169
30
0
42
0.024348772
70
0
0
VERTEX
8
GRAVARE
10
79.65933286
20
21.103619588
30
0
70
0
0
VERTEX
8
GRAVARE
10
81.873669269
20
19.996451384
30
0
42
-0.030228126
70
0
0
VERTEX
8
GRAVARE
10
81.269366328
20
18.913002843
30
0
42
-0.02993544
70
0
0
VERTEX
8
GRAVARE
10
80.539389638
20
17.909865153
30
0
42
-0.03816096
70
0
0
VERTEX
8
GRAVARE
10
79.668529454
20
17.003112086
30
0
42
-0.036106254
70
0
0
VERTEX
8
GRAVARE
10
78.672817601
20
16.234918382
30
0
42
-0.040423933
70
0
0
VERTEX
8
GRAVARE
10
77.500981046
20
15.588433733
30
0
42
-0.033341573
70
0
0
VERTEX
8
GRAVARE
10
76.24556423
20
15.120652945
30
0
42
-0.021191648
70
0
0
VERTEX
8
GRAVARE
10
75.533912085
20
14.940727589
30
0
42
-0.018141075
70
0
0
VERTEX
8
GRAVARE
10
74.810149042
20
14.817246274
30
0
42
-0.018105146
70
0
0
VERTEX
8
GRAVARE
10
74.014356145
20
14.740214122
30
0
42
-0.015074206
70
0
0
VERTEX
8
GRAVARE
10
73.215046132
20
14.716110717
30
0
42
-0.019884685
70
0
0
VERTEX
8
GRAVARE
10
72.072204183
20
14.761578799
30
0
42
-0.025123321
70
0
0
VERTEX
8
GRAVARE
10
70.938608943
20
14.909510291
30
0
42
-0.025251217
70
0
0
VERTEX
8
GRAVARE
10
69.934890309
20
15.145045427
30
0
42
-0.0300453
70
0
0
VERTEX
8
GRAVARE
10
68.963804116
20
15.489709013
30
0
42
-0.025221197
70
0
0
VERTEX
8
GRAVARE
10
68.101359702
20
15.907978372
30
0
42
-0.028357783
70
0
0
VERTEX
8
GRAVARE
10
67.288857346
20
16.4158978
30
0
42
-0.028434319
70
0
0
VERTEX
8
GRAVARE
10
66.56500577
20
16.992023559
30
0
42
-0.029010648
70
0
0
VERTEX
8
GRAVARE
10
65.911994322
20
17.647267566
30
0
42
-0.027434131
70
0
0
VERTEX
8
GRAVARE
10
65.334454332
20
18.375005834
30
0
42
-0.026493644
70
0
0
VERTEX
8
GRAVARE
10
64.83853797
20
19.160752307
30
0
42
-0.026424534
70
0
0
VERTEX
8
GRAVARE
10
64.411989125
20
20.027800518
30
0
42
-0.023464107
70
0
0
VERTEX
8
GRAVARE
10
64.073811214
20
20.933286018
30
0
42
-0.021650639
70
0
0
VERTEX
8
GRAVARE
10
63.803912724
20
21.91915141
30
0
42
-0.019554634
70
0
0
VERTEX
8
GRAVARE
10
63.616039744
20
22.924059617
30
0
42
-0.019514512
70
0
0
VERTEX
8
GRAVARE
10
63.500241086
20
24.005278544
30
0
42
-0.016918947
70
0
0
VERTEX
8
GRAVARE
10
63.463449255
20
25.092264017
30
0
42
-0.017227791
70
0
0
VERTEX
8
GRAVARE
10
63.501963757
20
26.209733791
30
0
42
-0.02065545
70
0
0
VERTEX
8
GRAVARE
10
63.624911285
20
27.32079489
30
0
42
-0.020712743
70
0
0
VERTEX
8
GRAVARE
10
63.822549359
20
28.332434851
30
0
42
-0.023822225
70
0
0
VERTEX
8
GRAVARE
10
64.109297374
20
29.322214336
30
0
42
-0.023458968
70
0
0
VERTEX
8
GRAVARE
10
64.462791541
20
30.216233142
30
0
42
-0.026883691
70
0
0
VERTEX
8
GRAVARE
10
64.904187367
20
31.069907736
30
0
42
-0.026971058
70
0
0
VERTEX
8
GRAVARE
10
65.410082888
20
31.833907623
30
0
42
-0.028370383
70
0
0
VERTEX
8
GRAVARE
10
65.997161107
20
32.537260468
30
0
42
-0.029033177
70
0
0
VERTEX
8
GRAVARE
10
66.65627346
20
33.164323686
30
0
42
-0.028348193
70
0
0
VERTEX
8
GRAVARE
10
67.382895671
20
33.711852378
30
0
42
-0.028268741
70
0
0
VERTEX
8
GRAVARE
10
68.196137075
20
34.191134502
30
0
42
-0.02506644
70
0
0
VERTEX
8
GRAVARE
10
69.056068133
20
34.581263307
30
0
42
-0.027465542
70
0
0
VERTEX
8
GRAVARE
10
70.014443201
20
34.899779786
30
0
42
-0.023678742
70
0
0
VERTEX
8
GRAVARE
10
71.000709723
20
35.118878637
30
0
42
-0.023583497
70
0
0
VERTEX
8
GRAVARE
10
72.096737053
20
35.255590405
30
0
42
-0.019236055
70
0
0
VERTEX
8
GRAVARE
10
73.200851668
20
35.298083747
30
0
42
-0.012204621
70
0
0
VERTEX
8
GRAVARE
10
73.967544818
20
35.27936656
30
0
42
-0.01433126
70
0
0
VERTEX
8
GRAVARE
10
74.732079489
20
35.220014194
30
0
42
-0.014345168
70
0
0
VERTEX
8
GRAVARE
10
75.435717448
20
35.124566775
30
0
42
-0.016599153
70
0
0
VERTEX
8
GRAVARE
10
76.132008517
20
34.985805536
30
0
42
-0.033520345
70
0
0
VERTEX
8
GRAVARE
10
77.370592418
20
34.606842513
30
0
42
-0.040954615
70
0
0
VERTEX
8
GRAVARE
10
78.537970192
20
34.048970901
30
0
42
-0.041467049
70
0
0
VERTEX
8
GRAVARE
10
79.533576891
20
33.352308405
30
0
42
-0.043159994
70
0
0
VERTEX
8
GRAVARE
10
80.397444996
20
32.498225692
30
0
42
-0.042906925
70
0
0
VERTEX
8
GRAVARE
10
81.128031961
20
31.47284117
30
0
42
-0.035980903
70
0
0
VERTEX
8
GRAVARE
10
81.689141235
20
30.344215756
30
0
70
0
0
VERTEX
8
GRAVARE
10
79.119943222
20
29.492547906
30
0
42
0.034410566
70
0
0
VERTEX
8
GRAVARE
10
78.78110866
20
30.195243583
30
0
42
0.030921398
70
0
0
VERTEX
8
GRAVARE
10
78.353442158
20
30.848119233
30
0
42
0.044476222
70
0
0
VERTEX
8
GRAVARE
10
77.797422817
20
31.468634517
30
0
42
0.03747086
70
0
0
VERTEX
8
GRAVARE
10
77.146912704
20
31.990773598
30
0
42
0.043610168
70
0
0
VERTEX
8
GRAVARE
10
76.329781274
20
32.452456155
30
0
42
0.032424288
70
0
0
VERTEX
8
GRAVARE
10
75.450674237
20
32.785663591
30
0
42
0.022505131
70
0
0
VERTEX
8
GRAVARE
10
74.934588045
20
32.91880079
30
0
42
0.018521844
70
0
0
VERTEX
8
GRAVARE
10
74.409155429
20
33.009226402
30
0
42
0.018483731
70
0
0
VERTEX
8
GRAVARE
10
73.820512251
20
33.066163053
30
0
42
0.0148666
70
0
0
SEQEND
8
GRAVARE
0
POLYLINE
8
GRAVARE
66
1
10
0
20
0
30
0
70
1
0
VERTEX
8
GRAVARE
10
105.762952449
20
15
30
0
70
0
0
VERTEX
8
GRAVARE
10
92.519517388
20
15
30
0
70
0
0
VERTEX
8
GRAVARE
10
92.519517388
20
16.802696948
30
0
42
-0.015500803
70
0
0
VERTEX
8
GRAVARE
10
92.895721361
20
17.597543275
30
0
42
-0.017374352
70
0
0
VERTEX
8
GRAVARE
10
93.323278921
20
18.365862314
30
0
42
-0.017397636
70
0
0
VERTEX
8
GRAVARE
10
93.780223529
20
19.067364306
30
0
42
-0.018856078
70
0
0
VERTEX
8
GRAVARE
10
94.286728176
20
19.733853797
30
0
42
-0.017935086
70
0
0
VERTEX
8
GRAVARE
10
95.339305827
20
20.925719863
30
0
42
-0.020360688
70
0
0
VERTEX
8
GRAVARE
10
96.479772889
20
22.033356991
30
0
42
-0.007829017
70
0
0
VERTEX
8
GRAVARE
10
97.60273784
20
23.007245643
30
0
42
-0.00910439
70
0
0
VERTEX
8
GRAVARE
10
98.757984386
20
23.94251242
30
0
42
0.011745227
70
0
0
VERTEX
8
GRAVARE
10
99.800113886
20
24.795351646
30
0
42
0.015051049
70
0
0
VERTEX
8
GRAVARE
10
100.794889993
20
25.702625976
30
0
42
0.030090459
70
0
0
VERTEX
8
GRAVARE
10
101.593427963
20
26.575229027
30
0
42
0.038694427
70
0
0
VERTEX
8
GRAVARE
10
102.264017033
20
27.547906317
30
0
42
0.034780849
70
0
0
VERTEX
8
GRAVARE
10
102.509713892
20
28.047942688
30
0
42
0.034037047
70
0
0
VERTEX
8
GRAVARE
10
102.684528034
20
28.577004968
30
0
42
0.033869546
70
0
0
VERTEX
8
GRAVARE
10
102.790946914
20
29.150843919
30
0
42
0.028921656
70
0
0
VERTEX
8
GRAVARE
10
102.824698368
20
29.733853797
30
0
42
0.018709751
70
0
0
VERTEX
8
GRAVARE
10
102.809667739
20
30.135392205
30
0
42
0.023544007
70
0
0
VERTEX
8
GRAVARE
10
102.760823279
20
30.534066714
30
0
42
0.02364532
70
0
0
VERTEX
8
GRAVARE
10
102.683109409
20
30.887782799
30
0
42
0.028297241
70
0
0
VERTEX
8
GRAVARE
10
102.569198013
20
31.231369766
30
0
42
0.02598882
70
0
0
VERTEX
8
GRAVARE
10
102.429415761
20
31.537224936
30
0
42
0.029096869
70
0
0
VERTEX
8
GRAVARE
10
102.256919801
20
31.825762952
30
0
42
0.029171307
70
0
0
VERTEX
8
GRAVARE
10
102.058423475
20
32.084006738
30
0
42
0.02947585
70
0
0
VERTEX
8
GRAVARE
10
101.831085877
20
32.317246274
30
0
42
0.057427421
70
0
0
VERTEX
8
GRAVARE
10
101.288308601
20
32.708478891
30
0
42
0.048637764
70
0
0
VERTEX
8
GRAVARE
10
100.674237048
20
32.977288857
30
0
42
0.045339473
70
0
0
VERTEX
8
GRAVARE
10
99.934871994
20
33.146359304
30
0
42
0.033559528
70
0
0
VERTEX
8
GRAVARE
10
99.176721079
20
33.197303052
30
0
42
0.035158401
70
0
0
VERTEX
8
GRAVARE
10
98.447852059
20
33.145987883
30
0
42
0.041349335
70
0
0
VERTEX
8
GRAVARE
10
97.735982967
20
32.984386089
30
0
42
0.044853276
70
0
0
VERTEX
8
GRAVARE
10
97.105963927
20
32.721335111
30
0
42
0.049070935
70
0
0
VERTEX
8
GRAVARE
10
96.536550745
20
32.345635202
30
0
42
0.053284978
70
0
0
VERTEX
8
GRAVARE
10
96.053876182
20
31.860667973
30
0
42
0.047709498
70
0
0
VERTEX
8
GRAVARE
10
95.677785664
20
31.288147622
30
0
42
0.053660573
70
0
0
VERTEX
8
GRAVARE
10
95.393898376
20
30.574586373
30
0
42
0.038353168
70
0
0
VERTEX
8
GRAVARE
10
95.244854507
20
29.819020582
30
0
70
0
0
VERTEX
8
GRAVARE
10
92.633073101
20
30.060326473
30
0
42
-0.041458165
70
0
0
VERTEX
8
GRAVARE
10
92.844789056
20
31.100793915
30
0
42
-0.043539934
70
0
0
VERTEX
8
GRAVARE
10
93.229240596
20
32.090134847
30
0
42
-0.02504249
70
0
0
VERTEX
8
GRAVARE
10
93.4853326
20
32.550411017
30
0
42
-0.025297639
70
0
0
VERTEX
8
GRAVARE
10
93.786373314
20
32.982611781
30
0
42
-0.025274005
70
0
0
VERTEX
8
GRAVARE
10
94.13466789
20
33.388225422
30
0
42
-0.023594537
70
0
0
VERTEX
8
GRAVARE
10
94.520936835
20
33.757984386
30
0
42
-0.02587188
70
0
0
VERTEX
8
GRAVARE
10
94.958326656
20
34.100716458
30
0
42
-0.023737386
70
0
0
VERTEX
8
GRAVARE
10
95.427608233
20
34.398509581
30
0
42
-0.023664931
70
0
0
VERTEX
8
GRAVARE
10
95.953509057
20
34.666090261
30
0
42
-0.020374762
70
0
0
VERTEX
8
GRAVARE
10
96.501064585
20
34.886444287
30
0
42
-0.02596121
70
0
0
VERTEX
8
GRAVARE
10
97.117290264
20
35.070298188
30
0
42
-0.021349914
70
0
0
VERTEX
8
GRAVARE
10
97.748403123
20
35.195173882
30
0
42
-0.021280807
70
0
0
VERTEX
8
GRAVARE
10
98.46047755
20
35.273887382
30
0
42
-0.016886342
70
0
0
VERTEX
8
GRAVARE
10
99.176721079
20
35.298083747
30
0
42
-0.014834954
70
0
0
VERTEX
8
GRAVARE
10
99.882679098
20
35.277133427
30
0
42
-0.018393657
70
0
0
VERTEX
8
GRAVARE
10
100.585521647
20
35.209368346
30
0
42
-0.018431181
70
0
0
VERTEX
8
GRAVARE
10
101.213829458
20
35.101670266
30
0
42
-0.022330678
70
0
0
VERTEX
8
GRAVARE
10
101.831085877
20
34.943222143
30
0
42
-0.022211392
70
0
0
VERTEX
8
GRAVARE
10
102.378648354
20
34.749318674
30
0
42
-0.026493579
70
0
0
VERTEX
8
GRAVARE
10
102.904542229
20
34.503193754
30
0
42
-0.026610342
70
0
0
VERTEX
8
GRAVARE
10
103.367935586
20
34.222950401
30
0
42
-0.029334591
70
0
0
VERTEX
8
GRAVARE
10
103.797019163
20
33.892831796
30
0
42
-0.029308874
70
0
0
VERTEX
8
GRAVARE
10
104.173926564
20
33.525135375
30
0
42
-0.029640328
70
0
0
VERTEX
8
GRAVARE
10
104.504968062
20
33.115684883
30
0
42
-0.029586563
70
0
0
VERTEX
8
GRAVARE
10
104.791440827
20
32.660257276
30
0
42
-0.02689083
70
0
0
VERTEX
8
GRAVARE
10
105.024840312
20
32.175301632
30
0
42
-0.029120381
70
0
0
VERTEX
8
GRAVARE
10
105.214222013
20
31.63402357
30
0
42
-0.024892502
70
0
0
VERTEX
8
GRAVARE
10
105.344215756
20
31.07523066
30
0
42
-0.024775741
70
0
0
VERTEX
8
GRAVARE
10
105.425527358
20
30.449642796
30
0
42
-0.019930229
70
0
0
VERTEX
8
GRAVARE
10
105.450674237
20
29.819020582
30
0
42
-0.04599517
70
0
0
VERTEX
8
GRAVARE
10
105.360738552
20
28.843424448
30
0
42
-0.04886573
70
0
0
VERTEX
8
GRAVARE
10
105.088715401
20
27.902767921
30
0
42
-0.033019831
70
0
0
VERTEX
8
GRAVARE
10
104.661072862
20
27.006462862
30
0
42
-0.030305518
70
0
0
VERTEX
8
GRAVARE
10
104.123491838
20
26.171043293
30
0
42
-0.023089567
70
0
0
VERTEX
8
GRAVARE
10
103.458558237
20
25.346328927
30
0
42
-0.019717834
70
0
0
VERTEX
8
GRAVARE
10
102.725337119
20
24.581263307
30
0
42
-0.008471863
70
0
0
VERTEX
8
GRAVARE
10
101.90733458
20
23.818794709
30
0
42
-0.008044704
70
0
0
VERTEX
8
GRAVARE
10
101.064584812
20
23.083747339
30
0
42
-0.002206603
70
0
0
VERTEX
8
GRAVARE
10
100.194814861
20
22.355983447
30
0
42
-0.002199356
70
0
0
VERTEX
8
GRAVARE
10
99.31866572
20
21.635911994
30
0
42
0.007996859
70
0
0
VERTEX
8
GRAVARE
10
98.479446886
20
20.929731529
30
0
42
0.009179867
70
0
0
VERTEX
8
GRAVARE
10
97.665010646
20
20.195173882
30
0
42
0.014966199
70
0
0
VERTEX
8
GRAVARE
10
96.948651329
20
19.483431675
30
0
42
0.01811526
70
0
0
VERTEX
8
GRAVARE
10
96.28105039
20
18.726046842
30
0
42
0.032635545
70
0
0
VERTEX
8
GRAVARE
10
95.74930781
20
17.982787241
30
0
42
0.039327658
70
0
0
VERTEX
8
GRAVARE
10
95.330021292
20
17.171753016
30
0
70
0
0
VERTEX
8
GRAVARE
10
105.762952449
20
17.171753016
30
0
70
0
0
SEQEND
8
GRAVARE
0
POLYLINE
8
GRAVARE
66
1
10
0
20
0
30
0
70
1
0
VERTEX
8
GRAVARE
10
122.256919801
20
25.007097232
30
0
42
-0.011699158
70
0
0
VERTEX
8
GRAVARE
10
122.225833529
20
23.678710301
30
0
42
-0.016368813
70
0
0
VERTEX
8
GRAVARE
10
122.120298084
20
22.354506742
30
0
42
-0.016324294
70
0
0
VERTEX
8
GRAVARE
10
121.958916881
20
21.248644707
30
0
42
-0.023398708
70
0
0
VERTEX
8
GRAVARE
10
121.710432931
20
20.159687722
30
0
42
-0.017765617
70
0
0
VERTEX
8
GRAVARE
10
121.424603633
20
19.257019374
30
0
42
-0.024041763
70
0
0
VERTEX
8
GRAVARE
10
121.064584812
20
18.381831086
30
0
42
-0.024149024
70
0
0
VERTEX
8
GRAVARE
10
120.681186516
20
17.657154178
30
0
42
-0.031542776
70
0
0
VERTEX
8
GRAVARE
10
120.220014194
20
16.98012775
30
0
42
-0.028061785
70
0
0
VERTEX
8
GRAVARE
10
119.738201714
20
16.427616891
30
0
42
-0.033363161
70
0
0
VERTEX
8
GRAVARE
10
119.192689851
20
15.938608943
30
0
42
-0.033553467
70
0
0
VERTEX
8
GRAVARE
10
118.61950338
20
15.548947853
30
0
42
-0.034994448
70
0
0
VERTEX
8
GRAVARE
10
117.998580554
20
15.241305891
30
0
42
-0.025081613
70
0
0
VERTEX
8
GRAVARE
10
117.348385223
20
15.011384371
30
0
42
-0.024847121
70
0
0
VERTEX
8
GRAVARE
10
116.678495387
20
14.84740951
30
0
42
-0.024811346
70
0
0
VERTEX
8
GRAVARE
10
115.979063983
20
14.748300632
30
0
42
-0.022791341
70
0
0
VERTEX
8
GRAVARE
10
115.273243435
20
14.716110717
30
0
42
-0.022559011
70
0
0
VERTEX
8
GRAVARE
10
114.563858273
20
14.748133068
30
0
42
-0.025043702
70
0
0
VERTEX
8
GRAVARE
10
113.860894251
20
14.84740951
30
0
42
-0.025094995
70
0
0
VERTEX
8
GRAVARE
10
113.194341728
20
15.010917534
30
0
42
-0.025820612
70
0
0
VERTEX
8
GRAVARE
10
112.547906317
20
15.241305891
30
0
42
-0.035036042
70
0
0
VERTEX
8
GRAVARE
10
111.934113429
20
15.548500741
30
0
42
-0.033591235
70
0
0
VERTEX
8
GRAVARE
10
111.367991483
20
15.936834634
30
0
42
-0.033399972
70
0
0
VERTEX
8
GRAVARE
10
110.829708478
20
16.423588048
30
0
42
-0.028083341
70
0
0
VERTEX
8
GRAVARE
10
110.354861604
20
16.973030518
30
0
42
-0.031941088
70
0
0
VERTEX
8
GRAVARE
10
109.900590007
20
17.647569526
30
0
42
-0.024251456
70
0
0
VERTEX
8
GRAVARE
10
109.524485451
20
18.36941093
30
0
42
-0.024144244
70
0
0
VERTEX
8
GRAVARE
10
109.171552647
20
19.243985967
30
0
42
-0.017717762
70
0
0
VERTEX
8
GRAVARE
10
108.892831796
20
20.145493258
30
0
42
-0.022967177
70
0
0
VERTEX
8
GRAVARE
10
108.650562406
20
21.236617042
30
0
42
-0.015879107
70
0
0
VERTEX
8
GRAVARE
10
108.493612491
20
22.343860894
30
0
42
-0.015932551
70
0
0
VERTEX
8
GRAVARE
10
108.390770503
20
23.67349746
30
0
42
-0.011332947
70
0
0
VERTEX
8
GRAVARE
10
108.36053939
20
25.007097232
30
0
42
-0.010820259
70
0
0
VERTEX
8
GRAVARE
10
108.390476927
20
26.390337304
30
0
42
-0.015677537
70
0
0
VERTEX
8
GRAVARE
10
108.493612491
20
27.769694819
30
0
42
-0.007910145
70
0
0
VERTEX
8
GRAVARE
10
108.566363515
20
28.364015973
30
0
42
-0.009668676
70
0
0
VERTEX
8
GRAVARE
10
108.659953868
20
28.955376153
30
0
42
-0.009662892
70
0
0
VERTEX
8
GRAVARE
10
108.765011515
20
29.485549553
30
0
42
-0.011915798
70
0
0
VERTEX
8
GRAVARE
10
108.892831796
20
30.010645848
30
0
42
-0.018080525
70
0
0
VERTEX
8
GRAVARE
10
109.171181235
20
30.914422126
30
0
42
-0.025123519
70
0
0
VERTEX
8
GRAVARE
10
109.526259759
20
31.790276792
30
0
42
-0.025247165
70
0
0
VERTEX
8
GRAVARE
10
109.90353699
20
32.504671727
30
0
42
-0.033870942
70
0
0
VERTEX
8
GRAVARE
10
110.361958836
20
33.168914123
30
0
42
-0.02944723
70
0
0
VERTEX
8
GRAVARE
10
110.840822963
20
33.703283133
30
0
42
-0.034964068
70
0
0
VERTEX
8
GRAVARE
10
111.383960256
20
34.171398155
30
0
42
-0.035167169
70
0
0
VERTEX
8
GRAVARE
10
111.956922787
20
34.539572377
30
0
42
-0.036141424
70
0
0
VERTEX
8
GRAVARE
10
112.576295245
20
34.822569198
30
0
42
-0.02419736
70
0
0
VERTEX
8
GRAVARE
10
113.235039589
20
35.03209356
30
0
42
-0.02257383
70
0
0
VERTEX
8
GRAVARE
10
113.910574876
20
35.17920511
30
0
42
-0.022520311
70
0
0
VERTEX
8
GRAVARE
10
114.631892238
20
35.269292558
30
0
42
-0.019806732
70
0
0
VERTEX
8
GRAVARE
10
115.35841022
20
35.298083747
30
0
42
-0.020813584
70
0
0
VERTEX
8
GRAVARE
10
116.05571819
20
35.269044212
30
0
42
-0.022936748
70
0
0
VERTEX
8
GRAVARE
10
116.7476934
20
35.17920511
30
0
42
-0.022975469
70
0
0
VERTEX
8
GRAVARE
10
117.406338552
20
35.031285589
30
0
42
-0.023755435
70
0
0
VERTEX
8
GRAVARE
10
118.048261178
20
34.822569198
30
0
42
-0.036333008
70
0
0
VERTEX
8
GRAVARE
10
118.659551547
20
34.538884606
30
0
42
-0.034752516
70
0
0
VERTEX
8
GRAVARE
10
119.224627395
20
34.171398155
30
0
42
-0.034529268
70
0
0
VERTEX
8
GRAVARE
10
119.764514457
20
33.702525667
30
0
42
-0.028721289
70
0
0
VERTEX
8
GRAVARE
10
120.241305891
20
33.168914123
30
0
42
-0.03363135
70
0
0
VERTEX
8
GRAVARE
10
120.700297349
20
32.50452684
30
0
42
-0.025024882
70
0
0
VERTEX
8
GRAVARE
10
121.078779276
20
31.790276792
30
0
42
-0.024907105
70
0
0
VERTEX
8
GRAVARE
10
121.436187187
20
30.914413057
30
0
42
-0.017923299
70
0
0
VERTEX
8
GRAVARE
10
121.717530163
20
30.010645848
30
0
42
-0.012053823
70
0
0
VERTEX
8
GRAVARE
10
121.847039813
20
29.485614201
30
0
42
-0.009784495
70
0
0
VERTEX
8
GRAVARE
10
121.95351313
20
28.955376153
30
0
42
-0.009789964
70
0
0
VERTEX
8
GRAVARE
10
122.048345603
20
28.364054837
30
0
42
-0.008013606
70
0
0
VERTEX
8
GRAVARE
10
122.122072392
20
27.769694819
30
0
42
-0.015883027
70
0
0
VERTEX
8
GRAVARE
10
122.226579384
20
26.390389067
30
0
42
-0.010965426
70
0
0
SEQEND
8
GRAVARE
0
POLYLINE
8
GRAVARE
66
1
10
0
20
0
30
0
70
1
0
VERTEX
8
GRAVARE
10
119.65933286
20
25.007097232
30
0
42
0.007312561
70
0
0
VERTEX
8
GRAVARE
10
119.643349914
20
26.099880717
30
0
42
0.010546609
70
0
0
VERTEX
8
GRAVARE
10
119.588360539
20
27.191270405
30
0
42
0.010448958
70
0
0
VERTEX
8
GRAVARE
10
119.505530047
20
28.085816195
30
0
42
0.016065349
70
0
0
VERTEX
8
GRAVARE
10
119.375443577
20
28.974449965
30
0
42
0.014461805
70
0
0
VERTEX
8
GRAVARE
10
119.22511689
20
29.692382187
30
0
42
0.021187234
70
0
0
VERTEX
8
GRAVARE
10
119.024130589
20
30.397444996
30
0
42
0.021161123
70
0
0
VERTEX
8
GRAVARE
10
118.809962927
20
30.962348356
30
0
42
0.03143851
70
0
0
VERTEX
8
GRAVARE
10
118.537970192
20
31.501064585
30
0
42
0.028260687
70
0
0
VERTEX
8
GRAVARE
10
118.256450704
20
31.924340492
30
0
42
0.037490597
70
0
0
VERTEX
8
GRAVARE
10
117.922285309
20
32.306600426
30
0
42
0.037974845
70
0
0
VERTEX
8
GRAVARE
10
117.573679268
20
32.601163815
30
0
42
0.04319796
70
0
0
VERTEX
8
GRAVARE
10
117.182398864
20
32.835344216
30
0
42
0.03163079
70
0
0
VERTEX
8
GRAVARE
10
116.762846107
20
33.007671703
30
0
42
0.028923882
70
0
0
VERTEX
8
GRAVARE
10
116.325408091
20
33.128105039
30
0
42
0.028773111
70
0
0
VERTEX
8
GRAVARE
10
115.844606669
20
33.20239341
30
0
42
0.023946298
70
0
0
VERTEX
8
GRAVARE
10
115.35841022
20
33.22569198
30
0
42
0.023057875
70
0
0
VERTEX
8
GRAVARE
10
114.848256055
20
33.202153324
30
0
42
0.028451718
70
0
0
VERTEX
8
GRAVARE
10
114.343506033
20
33.126330731
30
0
42
0.028622337
70
0
0
VERTEX
8
GRAVARE
10
113.890733976
20
33.004320979
30
0
42
0.03233881
70
0
0
VERTEX
8
GRAVARE
10
113.456352023
20
32.828246984
30
0
42
0.042139196
70
0
0
VERTEX
8
GRAVARE
10
113.056257048
20
32.591676067
30
0
42
0.037907567
70
0
0
VERTEX
8
GRAVARE
10
112.698722498
20
32.29418027
30
0
42
0.037467435
70
0
0
VERTEX
8
GRAVARE
10
112.358952406
20
31.911538171
30
0
42
0.028817293
70
0
0
VERTEX
8
GRAVARE
10
112.072391767
20
31.486870121
30
0
42
0.031829586
70
0
0
VERTEX
8
GRAVARE
10
111.797319632
20
30.948486666
30
0
42
0.021532465
70
0
0
VERTEX
8
GRAVARE
10
111.580908446
20
30.383250532
30
0
42
0.021548032
70
0
0
VERTEX
8
GRAVARE
10
111.378586139
20
29.678336457
30
0
42
0.014733429
70
0
0
VERTEX
8
GRAVARE
10
111.22782115
20
28.9602555
30
0
42
0.015979957
70
0
0
VERTEX
8
GRAVARE
10
111.097838297
20
28.07338613
30
0
42
0.010470424
70
0
0
VERTEX
8
GRAVARE
10
111.014904187
20
27.180624556
30
0
42
0.010562977
70
0
0
VERTEX
8
GRAVARE
10
110.959940399
20
26.094559371
30
0
42
0.007360102
70
0
0
VERTEX
8
GRAVARE
10
110.943931867
20
25.007097232
30
0
42
0.007794283
70
0
0
VERTEX
8
GRAVARE
10
110.960456845
20
23.94709117
30
0
42
0.010944039
70
0
0
VERTEX
8
GRAVARE
10
111.016678495
20
22.888573456
30
0
42
0.010871857
70
0
0
VERTEX
8
GRAVARE
10
111.102165469
20
22.007230382
30
0
42
0.016048939
70
0
0
VERTEX
8
GRAVARE
10
111.234918382
20
21.132008517
30
0
42
0.014503209
70
0
0
VERTEX
8
GRAVARE
10
111.388990522
20
20.414888259
30
0
42
0.020911498
70
0
0
VERTEX
8
GRAVARE
10
111.593328602
20
19.710787793
30
0
42
0.020900696
70
0
0
VERTEX
8
GRAVARE
10
111.811519603
20
19.141607894
30
0
42
0.030408111
70
0
0
VERTEX
8
GRAVARE
10
112.086586231
20
18.598296664
30
0
42
0.027439627
70
0
0
VERTEX
8
GRAVARE
10
112.372037259
20
18.166685203
30
0
42
0.035922487
70
0
0
VERTEX
8
GRAVARE
10
112.709368346
20
17.775017743
30
0
42
0.036334289
70
0
0
VERTEX
8
GRAVARE
10
113.061483037
20
17.469077128
30
0
42
0.04130469
70
0
0
VERTEX
8
GRAVARE
10
113.456352023
20
17.221433641
30
0
42
0.033020073
70
0
0
VERTEX
8
GRAVARE
10
113.879214628
20
17.036855604
30
0
42
0.030611449
70
0
0
VERTEX
8
GRAVARE
10
114.322214336
20
16.907381121
30
0
42
0.030440617
70
0
0
VERTEX
8
GRAVARE
10
114.8088611
20
16.827706628
30
0
42
0.02536024
70
0
0
VERTEX
8
GRAVARE
10
115.301632363
20
16.802696948
30
0
42
0.026112626
70
0
0
VERTEX
8
GRAVARE
10
115.783783036
20
16.82789457
30
0
42
0.030531174
70
0
0
VERTEX
8
GRAVARE
10
116.259758694
20
16.907381121
30
0
42
0.030669199
70
0
0
VERTEX
8
GRAVARE
10
116.699049605
20
17.037434966
30
0
42
0.032119061
70
0
0
VERTEX
8
GRAVARE
10
117.118523776
20
17.221433641
30
0
42
0.04130469
70
0
0
VERTEX
8
GRAVARE
10
117.513392762
20
17.469077128
30
0
42
0.036334289
70
0
0
VERTEX
8
GRAVARE
10
117.865507452
20
17.775017743
30
0
42
0.035922487
70
0
0
VERTEX
8
GRAVARE
10
118.20283854
20
18.166685203
30
0
42
0.027439627
70
0
0
VERTEX
8
GRAVARE
10
118.488289567
20
18.598296664
30
0
42
0.029705097
70
0
0
VERTEX
8
GRAVARE
10
118.764433906
20
19.141840512
30
0
42
0.020346595
70
0
0
VERTEX
8
GRAVARE
10
118.985095813
20
19.710787793
30
0
42
0.020368077
70
0
0
VERTEX
8
GRAVARE
10
119.194104513
20
20.414877657
30
0
42
0.014128155
70
0
0
VERTEX
8
GRAVARE
10
119.354151881
20
21.132008517
30
0
42
0.016783683
70
0
0
VERTEX
8
GRAVARE
10
119.493336597
20
22.006931444
30
0
42
0.011401425
70
0
0
VERTEX
8
GRAVARE
10
119.583037615
20
22.888573456
30
0
42
0.011473081
70
0
0
VERTEX
8
GRAVARE
10
119.641997917
20
23.947017064
30
0
42
0.008175695
70
0
0
SEQEND
8
GRAVARE
0
POLYLINE
8
GRAVARE
66
1
10
0
20
0
30
0
70
1
0
VERTEX
8
GRAVARE
10
144.897090135
20
15
30
0
70
0
0
VERTEX
8
GRAVARE
10
142.370475515
20
15
30
0
70
0
0
VERTEX
8
GRAVARE
10
142.370475515
20
24.737402413
30
0
42
0.007783661
70
0
0
VERTEX
8
GRAVARE
10
142.362459146
20
25.252319648
30
0
42
0.01112024
70
0
0
VERTEX
8
GRAVARE
10
142.334989354
20
25.766501065
30
0
42
0.01103139
70
0
0
VERTEX
8
GRAVARE
10
142.293459847
20
26.190328462
30
0
42
0.016689046
70
0
0
VERTEX
8
GRAVARE
10
142.228530873
20
26.611071682
30
0
42
0.019613331
70
0
0
VERTEX
8
GRAVARE
10
142.149463297
20
26.955410951
30
0
42
0.027131272
70
0
0
VERTEX
8
GRAVARE
10
142.038679915
20
27.290631654
30
0
42
0.02731411
70
0
0
VERTEX
8
GRAVARE
10
141.912657475
20
27.566842277
30
0
42
0.035862513
70
0
0
VERTEX
8
GRAVARE
10
141.753016324
20
27.824698368
30
0
42
0.036187701
70
0
0
VERTEX
8
GRAVARE
10
141.575380753
20
28.036285029
30
0
42
0.03948628
70
0
0
VERTEX
8
GRAVARE
10
141.367991483
20
28.218594748
30
0
42
0.039470106
70
0
0
VERTEX
8
GRAVARE
10
141.133852371
20
28.36646668
30
0
42
0.035776409
70
0
0
VERTEX
8
GRAVARE
10
140.880056778
20
28.477643719
30
0
42
0.028421612
70
0
0
VERTEX
8
GRAVARE
10
140.583855938
20
28.56427154
30
0
42
0.02088945
70
0
0
VERTEX
8
GRAVARE
10
140.280340667
20
28.621362669
30
0
42
0.020854893
70
0
0
VERTEX
8
GRAVARE
10
139.921093416
20
28.658297095
30
0
42
0.015187894
70
0
0
VERTEX
8
GRAVARE
10
139.559971611
20
28.669268985
30
0
42
0.024786365
70
0
0
VERTEX
8
GRAVARE
10
139.17271084
20
28.65005961
30
0
42
0.028993864
70
0
0
VERTEX
8
GRAVARE
10
138.78992193
20
28.589425124
30
0
42
0.029118685
70
0
0
VERTEX
8
GRAVARE
10
138.436705625
20
28.490417761
30
0
42
0.030860849
70
0
0
VERTEX
8
GRAVARE
10
138.097941803
20
28.349893542
30
0
42
0.029449562
70
0
0
VERTEX
8
GRAVARE
10
137.783854992
20
28.172637565
30
0
42
0.029738553
70
0
0
VERTEX
8
GRAVARE
10
137.492902768
20
27.959545777
30
0
42
0.029682006
70
0
0
VERTEX
8
GRAVARE
10
137.223252698
20
27.707864755
30
0
42
0.026921235
70
0
0
VERTEX
8
GRAVARE
10
136.983676366
20
27.427253371
30
0
42
0.028231239
70
0
0
VERTEX
8
GRAVARE
10
136.762095161
20
27.100853171
30
0
42
0.023887655
70
0
0
VERTEX
8
GRAVARE
10
136.575585522
20
26.753016324
30
0
42
0.023784729
70
0
0
VERTEX
8
GRAVARE
10
136.407301365
20
26.35147484
30
0
42
0.019074694
70
0
0
VERTEX
8
GRAVARE
10
136.273953158
20
25.936834634
30
0
42
0.021000159
70
0
0
VERTEX
8
GRAVARE
10
136.162745387
20
25.46404021
30
0
42
0.016918717
70
0
0
VERTEX
8
GRAVARE
10
136.087650816
20
24.984031228
30
0
42
0.016896713
70
0
0
VERTEX
8
GRAVARE
10
136.040153889
20
24.442979264
30
0
42
0.013443704
70
0
0
VERTEX
8
GRAVARE
10
136.025550035
20
23.899929028
30
0
70
0
0
VERTEX
8
GRAVARE
10
136.025550035
20
15
30
0
70
0
0
VERTEX
8
GRAVARE
10
133.484740951
20
15
30
0
70
0
0
VERTEX
8
GRAVARE
10
133.484740951
20
27.079488999
30
0
42
0.001829879
70
0
0
VERTEX
8
GRAVARE
10
133.482883752
20
27.586952369
30
0
42
0.00150326
70
0
0
VERTEX
8
GRAVARE
10
133.477643719
20
28.094393187
30
0
42
0.001831876
70
0
0
VERTEX
8
GRAVARE
10
133.469077641
20
28.598341568
30
0
42
0.002295466
70
0
0
VERTEX
8
GRAVARE
10
133.456352023
20
29.102200142
30
0
42
0.000988271
70
0
0
VERTEX
8
GRAVARE
10
133.44336146
20
29.510334035
30
0
42
0.001961905
70
0
0
VERTEX
8
GRAVARE
10
133.427963094
20
29.918381831
30
0
42
0.001625573
70
0
0
VERTEX
8
GRAVARE
10
133.421664191
20
30.058594544
30
0
42
0.004070516
70
0
0
VERTEX
8
GRAVARE
10
133.41376863
20
30.198722498
30
0
42
0.00243347
70
0
0
VERTEX
8
GRAVARE
10
133.408215977
20
30.278726269
30
0
42
0.016935708
70
0
0
VERTEX
8
GRAVARE
10
133.399574166
20
30.35841022
30
0
70
0
0
VERTEX
8
GRAVARE
10
135.812633073
20
30.35841022
30
0
42
-0.029415935
70
0
0
VERTEX
8
GRAVARE
10
135.821751027
20
30.293036664
30
0
42
-0.001456677
70
0
0
VERTEX
8
GRAVARE
10
135.826827537
20
30.227111427
30
0
42
-0.005265743
70
0
0
VERTEX
8
GRAVARE
10
135.834822687
20
30.10118921
30
0
42
-0.001863247
70
0
0
VERTEX
8
GRAVARE
10
135.841022001
20
29.975159688
30
0
42
0.001125672
70
0
0
VERTEX
8
GRAVARE
10
135.858123532
20
29.616718005
30
0
42
0.000664275
70
0
0
VERTEX
8
GRAVARE
10
135.876508162
20
29.258339248
30
0
42
-0.002415925
70
0
0
VERTEX
8
GRAVARE
10
135.896175424
20
28.846783029
30
0
42
-0.002258516
70
0
0
VERTEX
8
GRAVARE
10
135.911994322
20
28.435060326
30
0
42
-0.002607485
70
0
0
VERTEX
8
GRAVARE
10
135.92206791
20
28.083797771
30
0
42
-0.00586392
70
0
0
VERTEX
8
GRAVARE
10
135.926188786
20
27.732434351
30
0
70
0
0
VERTEX
8
GRAVARE
10
135.968772179
20
27.732434351
30
0
42
-0.01809423
70
0
0
VERTEX
8
GRAVARE
10
136.313314397
20
28.35084947
30
0
42
-0.022637799
70
0
0
VERTEX
8
GRAVARE
10
136.706884315
20
28.938963804
30
0
42
-0.038985747
70
0
0
VERTEX
8
GRAVARE
10
137.135068974
20
29.434154463
30
0
42
-0.041203118
70
0
0
VERTEX
8
GRAVARE
10
137.636621718
20
29.854506742
30
0
42
-0.044576709
70
0
0
VERTEX
8
GRAVARE
10
138.222916501
20
30.19495587
30
0
42
-0.036638041
70
0
0
VERTEX
8
GRAVARE
10
138.857345635
20
30.436479773
30
0
42
-0.022600266
70
0
0
VERTEX
8
GRAVARE
10
139.225859512
20
30.528741073
30
0
42
-0.017987649
70
0
0
VERTEX
8
GRAVARE
10
139.600780696
20
30.590844571
30
0
42
-0.017959186
70
0
0
VERTEX
8
GRAVARE
10
140.026624062
20
30.630248037
30
0
42
-0.014089228
70
0
0
VERTEX
8
GRAVARE
10
140.454222853
20
30.642299503
30
0
42
-0.012403336
70
0
0
VERTEX
8
GRAVARE
10
140.868493674
20
30.632021241
30
0
42
-0.015293942
70
0
0
VERTEX
8
GRAVARE
10
141.281493967
20
30.598828957
30
0
42
-0.015308035
70
0
0
VERTEX
8
GRAVARE
10
141.651701585
20
30.546131617
30
0
42
-0.018698
70
0
0
VERTEX
8
GRAVARE
10
142.017388219
20
30.468417317
30
0
42
-0.037810067
70
0
0
VERTEX
8
GRAVARE
10
142.640052954
20
30.260429203
30
0
42
-0.050753813
70
0
0
VERTEX
8
GRAVARE
10
143.215046132
20
29.946770759
30
0
42
-0.053616341
70
0
0
VERTEX
8
GRAVARE
10
143.690499474
20
29.539811588
30
0
42
-0.047026803
70
0
0
VERTEX
8
GRAVARE
10
144.075585522
20
29.045422285
30
0
42
-0.04596598
70
0
0
VERTEX
8
GRAVARE
10
144.402469979
20
28.411198106
30
0
42
-0.03203289
70
0
0
VERTEX
8
GRAVARE
10
144.627395316
20
27.732434351
30
0
70
0
0
VERTEX
8
GRAVARE
10
144.669978708
20
27.732434351
30
0
42
-0.022410724
70
0
0
VERTEX
8
GRAVARE
10
145.023699998
20
28.354634964
30
0
42
-0.026641186
70
0
0
VERTEX
8
GRAVARE
10
145.436479773
20
28.938963804
30
0
42
-0.039337306
70
0
0
VERTEX
8
GRAVARE
10
145.896914465
20
29.436265279
30
0
42
-0.040052981
70
0
0
VERTEX
8
GRAVARE
10
146.430092264
20
29.854506742
30
0
42
-0.040972293
70
0
0
VERTEX
8
GRAVARE
10
147.046467856
20
30.193810785
30
0
42
-0.034778376
70
0
0
VERTEX
8
GRAVARE
10
147.707594038
20
30.436479773
30
0
42
-0.021391692
70
0
0
VERTEX
8
GRAVARE
10
148.084232366
20
30.528442133
30
0
42
-0.017549314
70
0
0
VERTEX
8
GRAVARE
10
148.466997871
20
30.590844571
30
0
42
-0.017519803
70
0
0
VERTEX
8
GRAVARE
10
148.895520082
20
30.630154479
30
0
42
-0.014111339
70
0
0
VERTEX
8
GRAVARE
10
149.325762952
20
30.642299503
30
0
42
-0.016669666
70
0
0
VERTEX
8
GRAVARE
10
149.869429415
20
30.624168988
30
0
42
-0.021895903
70
0
0
VERTEX
8
GRAVARE
10
150.409865153
20
30.56422995
30
0
42
-0.021969288
70
0
0
VERTEX
8
GRAVARE
10
150.878070197
20
30.470210021
30
0
42
-0.028020588
70
0
0
VERTEX
8
GRAVARE
10
151.334279631
20
30.330021292
30
0
42
-0.02978668
70
0
0
VERTEX
8
GRAVARE
10
151.73119758
20
30.155752941
30
0
42
-0.03394637
70
0
0
VERTEX
8
GRAVARE
10
152.102555004
20
29.932576295
30
0
42
-0.034062939
70
0
0
VERTEX
8
GRAVARE
10
152.429679634
20
29.669607217
30
0
42
-0.033799801
70
0
0
VERTEX
8
GRAVARE
10
152.718239886
20
29.364797729
30
0
42
-0.034056357
70
0
0
VERTEX
8
GRAVARE
10
152.975640965
20
29.006039544
30
0
42
-0.028209157
70
0
0
VERTEX
8
GRAVARE
10
153.186657204
20
28.617814053
30
0
42
-0.02801192
70
0
0
VERTEX
8
GRAVARE
10
153.373015714
20
28.158525834
30
0
42
-0.021526642
70
0
0
VERTEX
8
GRAVARE
10
153.513129879
20
27.682753726
30
0
42
-0.020020855
70
0
0
VERTEX
8
GRAVARE
10
153.628563309
20
27.122853018
30
0
42
-0.01482884
70
0
0
VERTEX
8
GRAVARE
10
153.704755145
20
26.556068133
30
0
42
-0.014846878
70
0
0
VERTEX
8
GRAVARE
10
153.753872959
20
25.896032331
30
0
42
-0.011147562
70
0
0
VERTEX
8
GRAVARE
10
153.768630234
20
25.234208659
30
0
70
0
0
VERTEX
8
GRAVARE
10
153.768630234
20
15
30
0
70
0
0
VERTEX
8
GRAVARE
10
151.242015614
20
15
30
0
70
0
0
VERTEX
8
GRAVARE
10
151.242015614
20
24.737402413
30
0
42
0.007783661
70
0
0
VERTEX
8
GRAVARE
10
151.233999246
20
25.252319648
30
0
42
0.01112024
70
0
0
VERTEX
8
GRAVARE
10
151.206529454
20
25.766501065
30
0
42
0.01103139
70
0
0
VERTEX
8
GRAVARE
10
151.164999947
20
26.190328462
30
0
42
0.016689046
70
0
0
VERTEX
8
GRAVARE
10
151.100070972
20
26.611071682
30
0
42
0.019613331
70
0
0
VERTEX
8
GRAVARE
10
151.021003396
20
26.955410951
30
0
42
0.027131272
70
0
0
VERTEX
8
GRAVARE
10
150.910220014
20
27.290631654
30
0
42
0.02731411
70
0
0
VERTEX
8
GRAVARE
10
150.784197575
20
27.566842277
30
0
42
0.035862513
70
0
0
VERTEX
8
GRAVARE
10
150.624556423
20
27.824698368
30
0
42
0.036187701
70
0
0
VERTEX
8
GRAVARE
10
150.446920852
20
28.036285029
30
0
42
0.03948628
70
0
0
VERTEX
8
GRAVARE
10
150.239531583
20
28.218594748
30
0
42
0.039470106
70
0
0
VERTEX
8
GRAVARE
10
150.00539247
20
28.36646668
30
0
42
0.035776409
70
0
0
VERTEX
8
GRAVARE
10
149.751596877
20
28.477643719
30
0
42
0.028421612
70
0
0
VERTEX
8
GRAVARE
10
149.455396038
20
28.56427154
30
0
42
0.02088945
70
0
0
VERTEX
8
GRAVARE
10
149.151880767
20
28.621362669
30
0
42
0.020854893
70
0
0
VERTEX
8
GRAVARE
10
148.792633515
20
28.658297095
30
0
42
0.015187894
70
0
0
VERTEX
8
GRAVARE
10
148.43151171
20
28.669268985
30
0
42
0.023665019
70
0
0
VERTEX
8
GRAVARE
10
148.044440615
20
28.65093863
30
0
42
0.027792315
70
0
0
VERTEX
8
GRAVARE
10
147.66146203
20
28.59297374
30
0
42
0.027909832
70
0
0
VERTEX
8
GRAVARE
10
147.308801617
20
28.498558474
30
0
42
0.029966122
70
0
0
VERTEX
8
GRAVARE
10
146.969481902
20
28.364088006
30
0
42
0.030200063
70
0
0
VERTEX
8
GRAVARE
10
146.655465398
20
28.193515736
30
0
42
0.030551766
70
0
0
VERTEX
8
GRAVARE
10
146.364442867
20
27.986160397
30
0
42
0.030489182
70
0
0
VERTEX
8
GRAVARE
10
146.094672077
20
27.739283802
30
0
42
0.027546172
70
0
0
VERTEX
8
GRAVARE
10
145.855216466
20
27.462739532
30
0
42
0.029205446
70
0
0
VERTEX
8
GRAVARE
10
145.633253928
20
27.13841722
30
0
42
0.024344329
70
0
0
VERTEX
8
GRAVARE
10
145.447125621
20
26.7920511
30
0
42
0.024230961
70
0
0
VERTEX
8
GRAVARE
10
145.278556558
20
26.388821263
30
0
42
0.019144207
70
0
0
VERTEX
8
GRAVARE
10
145.145493258
20
25.972320795
30
0
42
0.021181775
70
0
0
VERTEX
8
GRAVARE
10
145.034051663
20
25.493323839
30
0
42
0.016736196
70
0
0
VERTEX
8
GRAVARE
10
144.959190916
20
25.007097232
30
0
42
0.016719639
70
0
0
VERTEX
8
GRAVARE
10
144.911629179
20
24.454499151
30
0
42
0.01310614
70
0
0
VERTEX
8
GRAVARE
10
144.897090135
20
23.899929028
30
0
70
0
0
SEQEND
8
GRAVARE
0
POLYLINE
8
GRAVARE
66
1
10
0
20
0
30
0
70
1
0
VERTEX
8
GRAVARE
10
169.11284599
20
15
30
0
70
0
0
VERTEX
8
GRAVARE
10
166.58623137
20
15
30
0
70
0
0
VERTEX
8
GRAVARE
10
166.58623137
20
24.737402413
30
0
42
0.007783661
70
0
0
VERTEX
8
GRAVARE
10
166.578215002
20
25.252319648
30
0
42
0.01112024
70
0
0
VERTEX
8
GRAVARE
10
166.550745209
20
25.766501065
30
0
42
0.01103139
70
0
0
VERTEX
8
GRAVARE
10
166.509215702
20
26.190328462
30
0
42
0.016689046
70
0
0
VERTEX
8
GRAVARE
10
166.444286728
20
26.611071682
30
0
42
0.019613331
70
0
0
VERTEX
8
GRAVARE
10
166.365219152
20
26.955410951
30
0
42
0.027131272
70
0
0
VERTEX
8
GRAVARE
10
166.25443577
20
27.290631654
30
0
42
0.02731411
70
0
0
VERTEX
8
GRAVARE
10
166.128413331
20
27.566842277
30
0
42
0.035862513
70
0
0
VERTEX
8
GRAVARE
10
165.968772179
20
27.824698368
30
0
42
0.036187701
70
0
0
VERTEX
8
GRAVARE
10
165.791136608
20
28.036285029
30
0
42
0.03948628
70
0
0
VERTEX
8
GRAVARE
10
165.583747339
20
28.218594748
30
0
42
0.039470106
70
0
0
VERTEX
8
GRAVARE
10
165.349608226
20
28.36646668
30
0
42
0.035776409
70
0
0
VERTEX
8
GRAVARE
10
165.095812633
20
28.477643719
30
0
42
0.028421612
70
0
0
VERTEX
8
GRAVARE
10
164.799611793
20
28.56427154
30
0
42
0.02088945
70
0
0
VERTEX
8
GRAVARE
10
164.496096522
20
28.621362669
30
0
42
0.020854893
70
0
0
VERTEX
8
GRAVARE
10
164.136849271
20
28.658297095
30
0
42
0.015187894
70
0
0
VERTEX
8
GRAVARE
10
163.775727466
20
28.669268985
30
0
42
0.024786365
70
0
0
VERTEX
8
GRAVARE
10
163.388466696
20
28.65005961
30
0
42
0.028993864
70
0
0
VERTEX
8
GRAVARE
10
163.005677786
20
28.589425124
30
0
42
0.029118685
70
0
0
VERTEX
8
GRAVARE
10
162.65246148
20
28.490417761
30
0
42
0.030860849
70
0
0
VERTEX
8
GRAVARE
10
162.313697658
20
28.349893542
30
0
42
0.029449562
70
0
0
VERTEX
8
GRAVARE
10
161.999610848
20
28.172637565
30
0
42
0.029738553
70
0
0
VERTEX
8
GRAVARE
10
161.708658623
20
27.959545777
30
0
42
0.029682006
70
0
0
VERTEX
8
GRAVARE
10
161.439008553
20
27.707864755
30
0
42
0.026921235
70
0
0
VERTEX
8
GRAVARE
10
161.199432221
20
27.427253371
30
0
42
0.028231239
70
0
0
VERTEX
8
GRAVARE
10
160.977851017
20
27.100853171
30
0
42
0.023887655
70
0
0
VERTEX
8
GRAVARE
10
160.791341377
20
26.753016324
30
0
42
0.023784729
70
0
0
VERTEX
8
GRAVARE
10
160.62305722
20
26.35147484
30
0
42
0.019074694
70
0
0
VERTEX
8
GRAVARE
10
160.489709013
20
25.936834634
30
0
42
0.021000159
70
0
0
VERTEX
8
GRAVARE
10
160.378501242
20
25.46404021
30
0
42
0.016918717
70
0
0
VERTEX
8
GRAVARE
10
160.303406671
20
24.984031228
30
0
42
0.016896713
70
0
0
VERTEX
8
GRAVARE
10
160.255909744
20
24.442979264
30
0
42
0.013443704
70
0
0
VERTEX
8
GRAVARE
10
160.241305891
20
23.899929028
30
0
70
0
0
VERTEX
8
GRAVARE
10
160.241305891
20
15
30
0
70
0
0
VERTEX
8
GRAVARE
10
157.700496806
20
15
30
0
70
0
0
VERTEX
8
GRAVARE
10
157.700496806
20
27.079488999
30
0
42
0.001829879
70
0
0
VERTEX
8
GRAVARE
10
157.698639607
20
27.586952369
30
0
42
0.00150326
70
0
0
VERTEX
8
GRAVARE
10
157.693399574
20
28.094393187
30
0
42
0.001831876
70
0
0
VERTEX
8
GRAVARE
10
157.684833496
20
28.598341568
30
0
42
0.002295466
70
0
0
VERTEX
8
GRAVARE
10
157.672107878
20
29.102200142
30
0
42
0.000988271
70
0
0
VERTEX
8
GRAVARE
10
157.659117315
20
29.510334035
30
0
42
0.001961905
70
0
0
VERTEX
8
GRAVARE
10
157.64371895
20
29.918381831
30
0
42
0.001625573
70
0
0
VERTEX
8
GRAVARE
10
157.637420047
20
30.058594544
30
0
42
0.004070516
70
0
0
VERTEX
8
GRAVARE
10
157.629524485
20
30.198722498
30
0
42
0.00243347
70
0
0
VERTEX
8
GRAVARE
10
157.623971833
20
30.278726269
30
0
42
0.016935708
70
0
0
VERTEX
8
GRAVARE
10
157.615330021
20
30.35841022
30
0
70
0
0
VERTEX
8
GRAVARE
10
160.028388928
20
30.35841022
30
0
42
-0.029415935
70
0
0
VERTEX
8
GRAVARE
10
160.037506882
20
30.293036664
30
0
42
-0.001456677
70
0
0
VERTEX
8
GRAVARE
10
160.042583392
20
30.227111427
30
0
42
-0.005265743
70
0
0
VERTEX
8
GRAVARE
10
160.050578542
20
30.10118921
30
0
42
-0.001863247
70
0
0
VERTEX
8
GRAVARE
10
160.056777857
20
29.975159688
30
0
42
0.001125672
70
0
0
VERTEX
8
GRAVARE
10
160.073879387
20
29.616718005
30
0
42
0.000664275
70
0
0
VERTEX
8
GRAVARE
10
160.092264017
20
29.258339248
30
0
42
-0.002415925
70
0
0
VERTEX
8
GRAVARE
10
160.111931279
20
28.846783029
30
0
42
-0.002258516
70
0
0
VERTEX
8
GRAVARE
10
160.127750177
20
28.435060326
30
0
42
-0.002607485
70
0
0
VERTEX
8
GRAVARE
10
160.137823766
20
28.083797771
30
0
42
-0.00586392
70
0
0
VERTEX
8
GRAVARE
10
160.141944642
20
27.732434351
30
0
70
0
0
VERTEX
8
GRAVARE
10
160.184528034
20
27.732434351
30
0
42
-0.01809423
70
0
0
VERTEX
8
GRAVARE
10
160.529070252
20
28.35084947
30
0
42
-0.022637799
70
0
0
VERTEX
8
GRAVARE
10
160.92264017
20
28.938963804
30
0
42
-0.038985747
70
0
0
VERTEX
8
GRAVARE
10
161.350824829
20
29.434154463
30
0
42
-0.041203118
70
0
0
VERTEX
8
GRAVARE
10
161.852377573
20
29.854506742
30
0
42
-0.044576709
70
0
0
VERTEX
8
GRAVARE
10
162.438672357
20
30.19495587
30
0
42
-0.036638041
70
0
0
VERTEX
8
GRAVARE
10
163.07310149
20
30.436479773
30
0
42
-0.022600266
70
0
0
VERTEX
8
GRAVARE
10
163.441615368
20
30.528741073
30
0
42
-0.017987649
70
0
0
VERTEX
8
GRAVARE
10
163.816536551
20
30.590844571
30
0
42
-0.017959186
70
0
0
VERTEX
8
GRAVARE
10
164.242379917
20
30.630248037
30
0
42
-0.014089228
70
0
0
VERTEX
8
GRAVARE
10
164.669978708
20
30.642299503
30
0
42
-0.012403336
70
0
0
VERTEX
8
GRAVARE
10
165.084249529
20
30.632021241
30
0
42
-0.015293942
70
0
0
VERTEX
8
GRAVARE
10
165.497249823
20
30.598828957
30
0
42
-0.015308035
70
0
0
VERTEX
8
GRAVARE
10
165.86745744
20
30.546131617
30
0
42
-0.018698
70
0
0
VERTEX
8
GRAVARE
10
166.233144074
20
30.468417317
30
0
42
-0.037810067
70
0
0
VERTEX
8
GRAVARE
10
166.855808809
20
30.260429203
30
0
42
-0.050753813
70
0
0
VERTEX
8
GRAVARE
10
167.430801987
20
29.946770759
30
0
42
-0.053616341
70
0
0
VERTEX
8
GRAVARE
10
167.906255329
20
29.539811588
30
0
42
-0.047026803
70
0
0
VERTEX
8
GRAVARE
10
168.291341377
20
29.045422285
30
0
42
-0.04596598
70
0
0
VERTEX
8
GRAVARE
10
168.618225834
20
28.411198106
30
0
42
-0.03203289
70
0
0
VERTEX
8
GRAVARE
10
168.843151171
20
27.732434351
30
0
70
0
0
VERTEX
8
GRAVARE
10
168.885734564
20
27.732434351
30
0
42
-0.022410724
70
0
0
VERTEX
8
GRAVARE
10
169.239455853
20
28.354634964
30
0
42
-0.026641186
70
0
0
VERTEX
8
GRAVARE
10
169.652235628
20
28.938963804
30
0
42
-0.039337306
70
0
0
VERTEX
8
GRAVARE
10
170.112670321
20
29.436265279
30
0
42
-0.040052981
70
0
0
VERTEX
8
GRAVARE
10
170.645848119
20
29.854506742
30
0
42
-0.040972293
70
0
0
VERTEX
8
GRAVARE
10
171.262223711
20
30.193810785
30
0
42
-0.034778376
70
0
0
VERTEX
8
GRAVARE
10
171.923349894
20
30.436479773
30
0
42
-0.021391692
70
0
0
VERTEX
8
GRAVARE
10
172.299988221
20
30.528442133
30
0
42
-0.017549314
70
0
0
VERTEX
8
GRAVARE
10
172.682753726
20
30.590844571
30
0
42
-0.017519803
70
0
0
VERTEX
8
GRAVARE
10
173.111275937
20
30.630154479
30
0
42
-0.014111339
70
0
0
VERTEX
8
GRAVARE
10
173.541518808
20
30.642299503
30
0
42
-0.016669666
70
0
0
VERTEX
8
GRAVARE
10
174.08518527
20
30.624168988
30
0
42
-0.021895903
70
0
0
VERTEX
8
GRAVARE
10
174.625621008
20
30.56422995
30
0
42
-0.021969288
70
0
0
VERTEX
8
GRAVARE
10
175.093826053
20
30.470210021
30
0
42
-0.028020588
70
0
0
VERTEX
8
GRAVARE
10
175.550035486
20
30.330021292
30
0
42
-0.02978668
70
0
0
VERTEX
8
GRAVARE
10
175.946953435
20
30.155752941
30
0
42
-0.03394637
70
0
0
VERTEX
8
GRAVARE
10
176.318310859
20
29.932576295
30
0
42
-0.034062939
70
0
0
VERTEX
8
GRAVARE
10
176.645435489
20
29.669607217
30
0
42
-0.033799801
70
0
0
VERTEX
8
GRAVARE
10
176.933995742
20
29.364797729
30
0
42
-0.034056357
70
0
0
VERTEX
8
GRAVARE
10
177.19139682
20
29.006039544
30
0
42
-0.028209157
70
0
0
VERTEX
8
GRAVARE
10
177.402413059
20
28.617814053
30
0
42
-0.02801192
70
0
0
VERTEX
8
GRAVARE
10
177.588771569
20
28.158525834
30
0
42
-0.021526642
70
0
0
VERTEX
8
GRAVARE
10
177.728885735
20
27.682753726
30
0
42
-0.020020855
70
0
0
VERTEX
8
GRAVARE
10
177.844319165
20
27.122853018
30
0
42
-0.01482884
70
0
0
VERTEX
8
GRAVARE
10
177.920511001
20
26.556068133
30
0
42
-0.014846878
70
0
0
VERTEX
8
GRAVARE
10
177.969628814
20
25.896032331
30
0
42
-0.011147562
70
0
0
VERTEX
8
GRAVARE
10
177.984386089
20
25.234208659
30
0
70
0
0
VERTEX
8
GRAVARE
10
177.984386089
20
15
30
0
70
0
0
VERTEX
8
GRAVARE
10
175.457771469
20
15
30
0
70
0
0
VERTEX
8
GRAVARE
10
175.457771469
20
24.737402413
30
0
42
0.007783661
70
0
0
VERTEX
8
GRAVARE
10
175.449755101
20
25.252319648
30
0
42
0.01112024
70
0
0
VERTEX
8
GRAVARE
10
175.422285309
20
25.766501065
30
0
42
0.01103139
70
0
0
VERTEX
8
GRAVARE
10
175.380755802
20
26.190328462
30
0
42
0.016689046
70
0
0
VERTEX
8
GRAVARE
10
175.315826828
20
26.611071682
30
0
42
0.019613331
70
0
0
VERTEX
8
GRAVARE
10
175.236759251
20
26.955410951
30
0
42
0.027131272
70
0
0
VERTEX
8
GRAVARE
10
175.125975869
20
27.290631654
30
0
42
0.02731411
70
0
0
VERTEX
8
GRAVARE
10
174.99995343
20
27.566842277
30
0
42
0.035862513
70
0
0
VERTEX
8
GRAVARE
10
174.840312278
20
27.824698368
30
0
42
0.036187701
70
0
0
VERTEX
8
GRAVARE
10
174.662676707
20
28.036285029
30
0
42
0.03948628
70
0
0
VERTEX
8
GRAVARE
10
174.455287438
20
28.218594748
30
0
42
0.039470106
70
0
0
VERTEX
8
GRAVARE
10
174.221148326
20
28.36646668
30
0
42
0.035776409
70
0
0
VERTEX
8
GRAVARE
10
173.967352732
20
28.477643719
30
0
42
0.028421612
70
0
0
VERTEX
8
GRAVARE
10
173.671151893
20
28.56427154
30
0
42
0.02088945
70
0
0
VERTEX
8
GRAVARE
10
173.367636622
20
28.621362669
30
0
42
0.020854893
70
0
0
VERTEX
8
GRAVARE
10
173.008389371
20
28.658297095
30
0
42
0.015187894
70
0
0
VERTEX
8
GRAVARE
10
172.647267566
20
28.669268985
30
0
42
0.023665019
70
0
0
VERTEX
8
GRAVARE
10
172.26019647
20
28.65093863
30
0
42
0.027792315
70
0
0
VERTEX
8
GRAVARE
10
171.877217885
20
28.59297374
30
0
42
0.027909832
70
0
0
VERTEX
8
GRAVARE
10
171.524557473
20
28.498558474
30
0
42
0.029966122
70
0
0
VERTEX
8
GRAVARE
10
171.185237757
20
28.364088006
30
0
42
0.030200063
70
0
0
VERTEX
8
GRAVARE
10
170.871221253
20
28.193515736
30
0
42
0.030551766
70
0
0
VERTEX
8
GRAVARE
10
170.580198722
20
27.986160397
30
0
42
0.030489182
70
0
0
VERTEX
8
GRAVARE
10
170.310427932
20
27.739283802
30
0
42
0.027546172
70
0
0
VERTEX
8
GRAVARE
10
170.070972321
20
27.462739532
30
0
42
0.029205446
70
0
0
VERTEX
8
GRAVARE
10
169.849009784
20
27.13841722
30
0
42
0.024344329
70
0
0
VERTEX
8
GRAVARE
10
169.662881476
20
26.7920511
30
0
42
0.024230961
70
0
0
VERTEX
8
GRAVARE
10
169.494312413
20
26.388821263
30
0
42
0.019144207
70
0
0
VERTEX
8
GRAVARE
10
169.361249113
20
25.972320795
30
0
42
0.021181775
70
0
0
VERTEX
8
GRAVARE
10
169.249807518
20
25.493323839
30
0
42
0.016736196
70
0
0
VERTEX
8
GRAVARE
10
169.174946771
20
25.007097232
30
0
42
0.016719639
70
0
0
VERTEX
8
GRAVARE
10
169.127385034
20
24.454499151
30
0
42
0.01310614
70
0
0
VERTEX
8
GRAVARE
10
169.11284599
20
23.899929028
30
0
70
0
0
SEQEND
8
GRAVARE
0
ENDSEC
0
EOF
