0
SECTION
2
HEADER
9
$ACADVER
1
AC1021
9
$LASTSAVEDBY
1
@tarikjabiri/dxf
9
$HANDSEED
5
28
9
$INSUNITS
70
4
9
$CLAYER
8
0
9
$MEASUREMENT
70
1
9
$VIEWCTR
10
195.80127018922195
20
144.15063509461098
0
ENDSEC
0
SECTION
2
CLASSES
0
ENDSEC
0
SECTION
2
TABLES
0
TABLE
2
VPORT
5
1
330
0
100
AcDbSymbolTable
70
1
0
VPORT
5
19
330
1
100
AcDbSymbolTableRecord
100
AcDbViewportTableRecord
2
*Active
70
0
10
0
20
0
11
1
21
1
12
195.80127018922195
22
144.15063509461098
13
0
23
0
14
10
24
10
15
10
25
10
16
0
26
0
36
1
17
0
27
0
37
0
40
288.30127018922195
41
2
42
50
43
0
44
0
50
0
51
0
71
0
72
100
73
1
74
3
75
0
76
1
77
0
78
0
281
0
65
1
110
0
120
0
130
0
111
1
121
0
131
0
112
0
122
1
132
0
79
0
146
0
348
10020
60
7
61
5
292
1
282
1
141
0
142
0
63
250
421
3358443
0
ENDTAB
0
TABLE
2
LTYPE
5
2
330
0
100
AcDbSymbolTable
70
3
0
LTYPE
5
12
330
2
100
AcDbSymbolTableRecord
100
AcDbLinetypeTableRecord
2
ByBlock
70
0
3

72
65
73
0
40
0
0
LTYPE
5
13
330
2
100
AcDbSymbolTableRecord
100
AcDbLinetypeTableRecord
2
ByLayer
70
0
3

72
65
73
0
40
0
0
LTYPE
5
14
330
2
100
AcDbSymbolTableRecord
100
AcDbLinetypeTableRecord
2
Continuous
70
0
3
Solid line
72
65
73
0
40
0
0
ENDTAB
0
TABLE
2
LAYER
5
3
330
0
100
AcDbSymbolTable
70
3
0
LAYER
5
15
330
3
100
AcDbSymbolTableRecord
100
AcDbLayerTableRecord
2
0
70
0
62
7
6
Continuous
370
0
390
0
0
LAYER
5
1A
330
3
100
AcDbSymbolTableRecord
100
AcDbLayerTableRecord
2
DECUPARE
70
0
62
1
6
Continuous
370
0
390
0
0
LAYER
5
1B
330
3
100
AcDbSymbolTableRecord
100
AcDbLayerTableRecord
2
GRAVARE
70
0
62
5
6
Continuous
370
0
390
0
0
ENDTAB
0
TABLE
2
STYLE
5
4
330
0
100
AcDbSymbolTable
70
1
0
STYLE
5
16
330
4
100
AcDbSymbolTableRecord
100
AcDbTextStyleTableRecord
2
Standard
70
0
40
0
41
1
50
0
71
0
42
1
3
txt
4

0
ENDTAB
0
TABLE
2
VIEW
5
5
330
0
100
AcDbSymbolTable
70
0
0
ENDTAB
0
TABLE
2
UCS
5
6
330
0
100
AcDbSymbolTable
70
0
0
ENDTAB
0
TABLE
2
APPID
5
7
330
0
100
AcDbSymbolTable
70
1
0
APPID
5
17
330
7
100
AcDbSymbolTableRecord
100
AcDbRegAppTableRecord
2
ACAD
70
0
0
ENDTAB
0
TABLE
2
DIMSTYLE
5
8
330
0
100
AcDbSymbolTable
70
1
100
AcDbDimStyleTable
0
DIMSTYLE
105
18
330
8
100
AcDbSymbolTableRecord
100
AcDbDimStyleTableRecord
2
Standard
70
0
340
16
0
ENDTAB
0
TABLE
2
BLOCK_RECORD
5
9
330
0
100
AcDbSymbolTable
70
2
0
BLOCK_RECORD
5
C
330
9
100
AcDbSymbolTableRecord
100
AcDbBlockTableRecord
2
*Model_Space
70
0
280
1
281
0
0
BLOCK_RECORD
5
F
330
9
100
AcDbSymbolTableRecord
100
AcDbBlockTableRecord
2
*Paper_Space
70
0
280
1
281
0
0
ENDTAB
0
ENDSEC
0
SECTION
2
BLOCKS
0
BLOCK
5
D
330
C
100
AcDbEntity
8
0
100
AcDbBlockBegin
2
*Model_Space
70
0
10
0
20
0
30
0
3
*Model_Space
1

0
ENDBLK
5
E
100
AcDbEntity
8
0
100
AcDbBlockEnd
0
BLOCK
5
10
330
F
100
AcDbEntity
8
0
100
AcDbBlockBegin
2
*Paper_Space
70
0
10
0
20
0
30
0
3
*Paper_Space
1

0
ENDBLK
5
11
100
AcDbEntity
8
0
100
AcDbBlockEnd
0
ENDSEC
0
SECTION
2
ENTITIES
0
CIRCLE
5
1C
330
C
100
AcDbEntity
8
DECUPARE
100
AcDbCircle
10
70
20
227
30
0
40
50
0
LWPOLYLINE
5
1D
330
C
100
AcDbEntity
8
DECUPARE
100
AcDbPolyline
90
8
70
1
43
0
38
0
39
0
10
217.05771365940052
20
111.6987298107781
42
0
10
372.9422863405995
20
201.69872981077808
42
0.41421356237309503
10
376.6025403784439
20
215.35898384862247
42
0
10
336.60254037844385
20
284.6410161513776
42
0.41421356237309503
10
322.9422863405995
20
288.30127018922195
42
0
10
167.05771365940052
20
198.30127018922198
42
0.41421356237309503
10
163.39745962155615
20
184.64101615137758
42
0
10
203.39745962155612
20
115.35898384862247
42
0.41421356237309503
0
ELLIPSE
5
1E
330
C
100
AcDbEntity
8
DECUPARE
100
AcDbEllipse
10
75
20
95
30
0
11
56.381557247154504
21
20.521208599540124
31
0
40
0.5
41
0
42
6.283185307179586
0
SPLINE
5
1F
330
C
100
AcDbEntity
8
GRAVARE
100
AcDbSpline
70
8
71
3
72
8
73
4
74
0
42
0.0000001
43
0.0000001
42
0.0000000001
40
0
40
0
40
0
40
0
40
1
40
1
40
1
40
1
10
160
20
60
30
0
10
210
20
120
30
0
10
260
20
0
30
0
10
310
20
60
30
0
0
SPLINE
5
20
330
C
100
AcDbEntity
8
GRAVARE
100
AcDbSpline
70
8
71
3
72
101
73
97
74
0
42
0.0000001
43
0.0000001
42
0.0000000001
40
0
40
0
40
0
40
0
40
1
40
1
40
1
40
2
40
2
40
2
40
3
40
3
40
3
40
4
40
4
40
4
40
5
40
5
40
5
40
6
40
6
40
6
40
7
40
7
40
7
40
8
40
8
40
8
40
9
40
9
40
9
40
10
40
10
40
10
40
11
40
11
40
11
40
12
40
12
40
12
40
13
40
13
40
13
40
14
40
14
40
14
40
15
40
15
40
15
40
16
40
16
40
16
40
17
40
17
40
17
40
18
40
18
40
18
40
19
40
19
40
19
40
20
40
20
40
20
40
21
40
21
40
21
40
22
40
22
40
22
40
23
40
23
40
23
40
24
40
24
40
24
40
25
40
25
40
25
40
26
40
26
40
26
40
27
40
27
40
27
40
28
40
28
40
28
40
29
40
29
40
29
40
30
40
30
40
30
40
31
40
31
40
31
40
32
40
32
40
32
40
32
10
31.242015613910574
20
33.08374733853797
30
0
10
30.106458481192334
20
33.08374733853797
30
0
10
29.101017269931393
20
32.89448781641826
30
0
10
28.22569198012775
20
32.51596877217885
30
0
10
27.350366690324105
20
32.13744972793943
30
0
10
26.61698604211024
20
31.598060089898272
30
0
10
26.02555003548616
20
30.897799858055357
30
0
10
25.434114028862076
20
30.197539626212443
30
0
10
24.98698840785427
20
29.35533475277975
30
0
10
24.68417317246274
20
28.371185237757274
30
0
10
24.381357937071208
20
27.387035722734797
30
0
10
24.229950319375444
20
26.294061982493492
30
0
10
24.229950319375444
20
25.092264017033358
30
0
10
24.229950319375444
20
23.89046605157322
30
0
10
24.39318665720369
20
22.790395079252423
30
0
10
24.719659332860182
20
21.79205110007097
30
0
10
25.046132008516675
20
20.79370712088952
30
0
10
25.51454932576295
20
19.934942039271352
30
0
10
26.124911284599005
20
19.215755855216464
30
0
10
26.73527324343506
20
18.49656967116158
30
0
10
27.4828483558079
20
17.938254080908447
30
0
10
28.36763662171753
20
17.540809084457063
30
0
10
29.25242488762716
20
17.14336408800568
30
0
10
30.248403122782115
20
16.944641589779987
30
0
10
31.355571327182396
20
16.944641589779987
30
0
10
32.1315353678732
20
16.944641589779987
30
0
10
32.8388928317956
20
17.046368582919328
30
0
10
33.47764371894961
20
17.249822569198013
30
0
10
34.11639460610362
20
17.453276555476698
30
0
10
34.69363614856873
20
17.739531582682755
30
0
10
35.209368346344924
20
18.108587650816183
30
0
10
35.725100544121126
20
18.47764371894961
30
0
10
36.18642062928791
20
18.915306363851432
30
0
10
36.59332860184528
20
19.421575585521644
30
0
10
37.00023657440265
20
19.92784480719186
30
0
10
37.359829666430095
20
20.488526141471493
30
0
10
37.67210787792761
20
21.103619588360537
30
0
10
38.410220014194465
20
20.73456352022711
30
0
10
39.14833215046132
20
20.365507452093684
30
0
10
39.88644428672818
20
19.996451383960256
30
0
10
39.52685119470073
20
19.248876271587413
30
0
10
39.08209131771942
20
18.55334752779749
30
0
10
38.55216465578424
20
17.90986515259049
30
0
10
38.02223799384906
20
17.266382777383487
30
0
10
37.400047314880524
20
16.708067187130354
30
0
10
36.68559261887864
20
16.234918381831086
30
0
10
35.97113792287674
20
15.761769576531819
30
0
10
35.162053465815
20
15.390347764371894
30
0
10
34.2583392476934
20
15.120652945351313
30
0
10
33.3546250295718
20
14.850958126330731
30
0
10
32.344452330257866
20
14.71611071682044
30
0
10
31.2278211497516
20
14.71611071682044
30
0
10
29.609652235628108
20
14.71611071682044
30
0
10
28.192571563756804
20
14.973976815708541
30
0
10
26.976579134137687
20
15.489709013484742
30
0
10
25.76058670451857
20
16.00544121126094
30
0
10
24.743316773125148
20
16.724627395315828
30
0
10
23.924769339957415
20
17.647267565649397
30
0
10
23.106221906789685
20
18.569907735982966
30
0
10
22.493494203927135
20
19.66524722025077
30
0
10
22.086586231369765
20
20.933286018452804
30
0
10
21.679678258812398
20
22.201324816654836
30
0
10
21.476224272533713
20
23.58765081618169
30
0
10
21.476224272533713
20
25.092264017033358
30
0
10
21.476224272533713
20
26.653655074520938
30
0
10
21.69150697894488
20
28.06363851431275
30
0
10
22.12207239176721
20
29.3222143364088
30
0
10
22.552637804589544
20
30.58079015850485
30
0
10
23.18192571563757
20
31.65247220250769
30
0
10
24.009936124911285
20
32.537260468417315
30
0
10
24.837946534185
20
33.42204873432694
30
0
10
25.85758220960492
20
34.10338301395789
30
0
10
27.068843151171045
20
34.58126330731015
30
0
10
28.280104092737165
20
35.05914360066241
30
0
10
29.661698604211026
20
35.29808374733854
30
0
10
31.21362668559262
20
35.29808374733854
30
0
10
33.34279630943932
20
35.29808374733854
30
0
10
35.12183581736456
20
34.88171279867518
30
0
10
36.550745209368344
20
34.04897090134847
30
0
10
37.97965460137213
20
33.21622900402176
30
0
10
39.0300449491365
20
31.98131062219068
30
0
10
39.70191625266146
20
30.344215755855217
30
0
10
38.84551691506979
20
30.06032647267566
30
0
10
37.98911757747812
20
29.776437189496097
30
0
10
37.132718239886444
20
29.49254790631654
30
0
10
36.94345871776674
20
29.965696711615802
30
0
10
36.68795836290513
20
30.417553820676602
30
0
10
36.36621717530163
20
30.848119233498934
30
0
10
36.04447598769813
20
31.278684646321267
30
0
10
35.642299503193755
20
31.659569434587176
30
0
10
35.1596877217885
20
31.990773598296663
30
0
10
34.677075940383254
20
32.32197776200615
30
0
10
34.11166311805063
20
32.58694109297374
30
0
10
33.46344925479063
20
32.78566359119943
30
0
10
32.815235391530635
20
32.98438608942512
30
0
10
32.07475751123728
20
33.08374733853797
30
0
10
31.242015613910574
20
33.08374733853797
30
0
0
SPLINE
5
21
330
C
100
AcDbEntity
8
GRAVARE
100
AcDbSpline
70
8
71
3
72
53
73
49
74
0
42
0.0000001
43
0.0000001
42
0.0000000001
40
0
40
0
40
0
40
0
40
1
40
1
40
1
40
2
40
2
40
2
40
3
40
3
40
3
40
4
40
4
40
4
40
5
40
5
40
5
40
6
40
6
40
6
40
7
40
7
40
7
40
8
40
8
40
8
40
9
40
9
40
9
40
10
40
10
40
10
40
11
40
11
40
11
40
12
40
12
40
12
40
13
40
13
40
13
40
14
40
14
40
14
40
15
40
15
40
15
40
16
40
16
40
16
40
16
10
59.61674946770759
20
15
30
0
10
58.52850721551928
20
15
30
0
10
57.44026496333097
20
15
30
0
10
56.35202271114265
20
15
30
0
10
52.784480719186185
20
20.677785663591198
30
0
10
49.21693872722971
20
26.355571327182396
30
0
10
45.64939673527324
20
32.0333569907736
30
0
10
45.668322687485215
20
31.569671161580317
30
0
10
45.69198012775018
20
31.11071682044003
30
0
10
45.72036905606814
20
30.65649396735273
30
0
10
45.7392950082801
20
30.268511947007333
30
0
10
45.75585521646558
20
29.85923823042347
30
0
10
45.77004968062455
20
29.428672817601132
30
0
10
45.784244144783536
20
28.9981074047788
30
0
10
45.79134137686302
20
28.61722261651289
30
0
10
45.79134137686302
20
28.286018452803404
30
0
10
45.79134137686302
20
23.85734563520227
30
0
10
45.79134137686302
20
19.428672817601136
30
0
10
45.79134137686302
20
15
30
0
10
44.98698840785427
20
15
30
0
10
44.182635438845516
20
15
30
0
10
43.37828246983676
20
15
30
0
10
43.37828246983676
20
21.666666666666664
30
0
10
43.37828246983676
20
28.333333333333332
30
0
10
43.37828246983676
20
35
30
0
10
44.42867281760113
20
35
30
0
10
45.47906316536551
20
35
30
0
10
46.52945351312988
20
35
30
0
10
50.13484740951029
20
29.28436243198486
30
0
10
53.7402413058907
20
23.56872486396972
30
0
10
57.34563520227111
20
17.853087295954577
30
0
10
57.31724627395316
20
18.316773125147858
30
0
10
57.2888573456352
20
18.78045895434114
30
0
10
57.26046841731724
20
19.244144783534423
30
0
10
57.241542465105276
20
19.641589779985807
30
0
10
57.2226165128933
20
20.074520936834634
30
0
10
57.20369056068134
20
20.54293825408091
30
0
10
57.18476460846936
20
21.011355571327183
30
0
10
57.17530163236337
20
21.45848119233499
30
0
10
57.17530163236337
20
21.88431511710433
30
0
10
57.17530163236337
20
26.25621007806955
30
0
10
57.17530163236337
20
30.628105039034775
30
0
10
57.17530163236337
20
35
30
0
10
57.98911757747811
20
35
30
0
10
58.80293352259285
20
35
30
0
10
59.61674946770759
20
35
30
0
10
59.61674946770759
20
28.333333333333336
30
0
10
59.61674946770759
20
21.666666666666668
30
0
10
59.61674946770759
20
15
30
0
0
SPLINE
5
22
330
C
100
AcDbEntity
8
GRAVARE
100
AcDbSpline
70
8
71
3
72
101
73
97
74
0
42
0.0000001
43
0.0000001
42
0.0000000001
40
0
40
0
40
0
40
0
40
1
40
1
40
1
40
2
40
2
40
2
40
3
40
3
40
3
40
4
40
4
40
4
40
5
40
5
40
5
40
6
40
6
40
6
40
7
40
7
40
7
40
8
40
8
40
8
40
9
40
9
40
9
40
10
40
10
40
10
40
11
40
11
40
11
40
12
40
12
40
12
40
13
40
13
40
13
40
14
40
14
40
14
40
15
40
15
40
15
40
16
40
16
40
16
40
17
40
17
40
17
40
18
40
18
40
18
40
19
40
19
40
19
40
20
40
20
40
20
40
21
40
21
40
21
40
22
40
22
40
22
40
23
40
23
40
23
40
24
40
24
40
24
40
25
40
25
40
25
40
26
40
26
40
26
40
27
40
27
40
27
40
28
40
28
40
28
40
29
40
29
40
29
40
30
40
30
40
30
40
31
40
31
40
31
40
32
40
32
40
32
40
32
10
73.2292405961675
20
33.08374733853797
30
0
10
72.09368346344925
20
33.08374733853797
30
0
10
71.08824225218831
20
32.89448781641826
30
0
10
70.21291696238467
20
32.51596877217885
30
0
10
69.33759167258103
20
32.13744972793943
30
0
10
68.60421102436716
20
31.598060089898272
30
0
10
68.01277501774308
20
30.897799858055357
30
0
10
67.421339011119
20
30.197539626212443
30
0
10
66.97421339011119
20
29.35533475277975
30
0
10
66.67139815471965
20
28.371185237757274
30
0
10
66.36858291932813
20
27.387035722734797
30
0
10
66.21717530163237
20
26.294061982493492
30
0
10
66.21717530163237
20
25.092264017033358
30
0
10
66.21717530163237
20
23.89046605157322
30
0
10
66.38041163946062
20
22.790395079252423
30
0
10
66.70688431511711
20
21.79205110007097
30
0
10
67.0333569907736
20
20.79370712088952
30
0
10
67.50177430801988
20
19.934942039271352
30
0
10
68.11213626685593
20
19.215755855216464
30
0
10
68.72249822569198
20
18.49656967116158
30
0
10
69.47007333806482
20
17.938254080908447
30
0
10
70.35486160397446
20
17.540809084457063
30
0
10
71.23964986988408
20
17.14336408800568
30
0
10
72.23562810503904
20
16.944641589779987
30
0
10
73.34279630943932
20
16.944641589779987
30
0
10
74.11876035013012
20
16.944641589779987
30
0
10
74.82611781405251
20
17.046368582919328
30
0
10
75.46486870120653
20
17.249822569198013
30
0
10
76.10361958836054
20
17.453276555476698
30
0
10
76.68086113082565
20
17.739531582682755
30
0
10
77.19659332860184
20
18.108587650816183
30
0
10
77.71232552637804
20
18.47764371894961
30
0
10
78.17364561154483
20
18.915306363851432
30
0
10
78.5805535841022
20
19.421575585521644
30
0
10
78.98746155665957
20
19.92784480719186
30
0
10
79.347054648687
20
20.488526141471493
30
0
10
79.65933286018452
20
21.103619588360537
30
0
10
80.39744499645138
20
20.73456352022711
30
0
10
81.13555713271823
20
20.365507452093684
30
0
10
81.8736692689851
20
19.996451383960256
30
0
10
81.51407617695764
20
19.248876271587413
30
0
10
81.06931629997634
20
18.55334752779749
30
0
10
80.53938963804116
20
17.90986515259049
30
0
10
80.00946297610598
20
17.266382777383487
30
0
10
79.38727229713744
20
16.708067187130354
30
0
10
78.67281760113556
20
16.234918381831086
30
0
10
77.95836290513367
20
15.761769576531819
30
0
10
77.14927844807193
20
15.390347764371894
30
0
10
76.24556422995032
20
15.120652945351313
30
0
10
75.34185001182871
20
14.850958126330731
30
0
10
74.33167731251478
20
14.71611071682044
30
0
10
73.21504613200851
20
14.71611071682044
30
0
10
71.59687721788502
20
14.71611071682044
30
0
10
70.17979654601372
20
14.973976815708541
30
0
10
68.9638041163946
20
15.489709013484742
30
0
10
67.74781168677549
20
16.00544121126094
30
0
10
66.73054175538206
20
16.724627395315828
30
0
10
65.91199432221434
20
17.647267565649397
30
0
10
65.0934468890466
20
18.569907735982966
30
0
10
64.48071918618405
20
19.66524722025077
30
0
10
64.07381121362668
20
20.933286018452804
30
0
10
63.66690324106931
20
22.201324816654836
30
0
10
63.46344925479063
20
23.58765081618169
30
0
10
63.46344925479063
20
25.092264017033358
30
0
10
63.46344925479063
20
26.653655074520938
30
0
10
63.6787319612018
20
28.06363851431275
30
0
10
64.10929737402412
20
29.3222143364088
30
0
10
64.53986278684646
20
30.58079015850485
30
0
10
65.1691506978945
20
31.65247220250769
30
0
10
65.99716110716821
20
32.537260468417315
30
0
10
66.82517151644193
20
33.42204873432694
30
0
10
67.84480719186183
20
34.10338301395789
30
0
10
69.05606813342796
20
34.58126330731015
30
0
10
70.26732907499408
20
35.05914360066241
30
0
10
71.64892358646794
20
35.29808374733854
30
0
10
73.20085166784953
20
35.29808374733854
30
0
10
75.33002129169624
20
35.29808374733854
30
0
10
77.10906079962149
20
34.88171279867518
30
0
10
78.53797019162526
20
34.04897090134847
30
0
10
79.96687958362905
20
33.21622900402176
30
0
10
81.01726993139343
20
31.98131062219068
30
0
10
81.68914123491838
20
30.344215755855217
30
0
10
80.83274189732671
20
30.06032647267566
30
0
10
79.97634255973503
20
29.776437189496097
30
0
10
79.11994322214336
20
29.49254790631654
30
0
10
78.93068370002365
20
29.965696711615802
30
0
10
78.67518334516205
20
30.417553820676602
30
0
10
78.35344215755855
20
30.848119233498934
30
0
10
78.03170096995504
20
31.278684646321267
30
0
10
77.62952448545067
20
31.659569434587176
30
0
10
77.14691270404542
20
31.990773598296663
30
0
10
76.66430092264017
20
32.32197776200615
30
0
10
76.09888810030755
20
32.58694109297374
30
0
10
75.45067423704755
20
32.78566359119943
30
0
10
74.80246037378755
20
32.98438608942512
30
0
10
74.0619824934942
20
33.08374733853797
30
0
10
73.2292405961675
20
33.08374733853797
30
0
0
SPLINE
5
23
330
C
100
AcDbEntity
8
GRAVARE
100
AcDbSpline
70
8
71
3
72
110
73
106
74
0
42
0.0000001
43
0.0000001
42
0.0000000001
40
0
40
0
40
0
40
0
40
1
40
1
40
1
40
2
40
2
40
2
40
3
40
3
40
3
40
4
40
4
40
4
40
5
40
5
40
5
40
6
40
6
40
6
40
7
40
7
40
7
40
8
40
8
40
8
40
9
40
9
40
9
40
10
40
10
40
10
40
11
40
11
40
11
40
12
40
12
40
12
40
13
40
13
40
13
40
14
40
14
40
14
40
15
40
15
40
15
40
16
40
16
40
16
40
17
40
17
40
17
40
18
40
18
40
18
40
19
40
19
40
19
40
20
40
20
40
20
40
21
40
21
40
21
40
22
40
22
40
22
40
23
40
23
40
23
40
24
40
24
40
24
40
25
40
25
40
25
40
26
40
26
40
26
40
27
40
27
40
27
40
28
40
28
40
28
40
29
40
29
40
29
40
30
40
30
40
30
40
31
40
31
40
31
40
32
40
32
40
32
40
33
40
33
40
33
40
34
40
34
40
34
40
35
40
35
40
35
40
35
10
105.76295244854506
20
15
30
0
10
101.34847409510292
20
15
30
0
10
96.93399574166075
20
15
30
0
10
92.5195173882186
20
15
30
0
10
92.5195173882186
20
15.600898982730069
30
0
10
92.5195173882186
20
16.201797965460138
30
0
10
92.5195173882186
20
16.802696948190206
30
0
10
93.00212916962386
20
17.90986515259049
30
0
10
93.59119943222144
20
18.886917435533476
30
0
10
94.28672817601137
20
19.73385379701916
30
0
10
94.98225691980129
20
20.580790158504847
30
0
10
95.71327182398865
20
21.34729122308966
30
0
10
96.47977288857346
20
22.033356990773598
30
0
10
97.24627395315827
20
22.719422758457537
30
0
10
98.0056777856636
20
23.35580790158505
30
0
10
98.75798438608943
20
23.942512420156138
30
0
10
99.51029098651526
20
24.529216938727227
30
0
10
100.18925952211971
20
25.115921457298317
30
0
10
100.79488999290277
20
25.70262597586941
30
0
10
101.40052046368584
20
26.289330494440502
30
0
10
101.89022947717058
20
26.904423941329547
30
0
10
102.26401703335699
20
27.547906316536547
30
0
10
102.63780458954342
20
28.19138869174355
30
0
10
102.82469836763663
20
28.920037851904425
30
0
10
102.82469836763663
20
29.73385379701916
30
0
10
102.82469836763663
20
30.301632363378282
30
0
10
102.73953158268276
20
30.80080435296901
30
0
10
102.56919801277502
20
31.231369765791342
30
0
10
102.39886444286729
20
31.661935178613675
30
0
10
102.15282706411168
20
32.02389401466761
30
0
10
101.83108587650817
20
32.31724627395316
30
0
10
101.50934468890466
20
32.6105985332387
30
0
10
101.12372841258576
20
32.83061272770286
30
0
10
100.67423704755146
20
32.977288857345634
30
0
10
100.22474568251715
20
33.12396498698841
30
0
10
99.72557369292643
20
33.1973030518098
30
0
10
99.17672107877928
20
33.1973030518098
30
0
10
98.66572036905607
20
33.1973030518098
30
0
10
98.18547433167731
20
33.1263307310149
30
0
10
97.73598296664301
20
32.98438608942512
30
0
10
97.28649160160872
20
32.84244144783534
30
0
10
96.88668086113083
20
32.62952448545067
30
0
10
96.53655074520937
20
32.34563520227111
30
0
10
96.18642062928791
20
32.06174591909155
30
0
10
95.90016560208186
20
31.7092500591436
30
0
10
95.67778566359121
20
31.288147622427253
30
0
10
95.45540572510055
20
30.867045185710904
30
0
10
95.31109533948427
20
30.377336172226162
30
0
10
95.24485450674237
20
29.819020581973028
30
0
10
94.37426070499173
20
29.899455878873905
30
0
10
93.50366690324107
20
29.979891175774778
30
0
10
92.63307310149042
20
30.060326472675655
30
0
10
92.7182398864443
20
30.779512656730542
30
0
10
92.91696238466999
20
31.45611544830849
30
0
10
93.2292405961675
20
32.09013484740951
30
0
10
93.54151880766501
20
32.72415424651052
30
0
10
93.97208422048735
20
33.28010409273716
30
0
10
94.5209368346345
20
33.757984386089426
30
0
10
95.06978944878165
20
34.23586467944168
30
0
10
95.72983203217412
20
34.6120179796546
30
0
10
96.50106458481193
20
34.88644428672818
30
0
10
97.27229713744974
20
35.160870593801754
30
0
10
98.16418263543885
20
35.29808374733854
30
0
10
99.17672107877928
20
35.29808374733854
30
0
10
100.17033356990774
20
35.29808374733854
30
0
10
101.05512183581737
20
35.17979654601372
30
0
10
101.83108587650817
20
34.94322214336408
30
0
10
102.60704991719896
20
34.70664774071445
30
0
10
103.26236101253845
20
34.356517624793
30
0
10
103.79701916252662
20
33.89283179559972
30
0
10
104.3316773125148
20
33.42914596640644
30
0
10
104.74095102909865
20
32.856635911994324
30
0
10
105.02484031227822
20
32.17530163236338
30
0
10
105.30872959545778
20
31.493967352732433
30
0
10
105.45067423704755
20
30.70854033593565
30
0
10
105.45067423704755
20
29.819020581973028
30
0
10
105.45067423704755
20
29.147149278448072
30
0
10
105.33002129169624
20
28.50839839129406
30
0
10
105.08871540099362
20
27.902767920511
30
0
10
104.84740951029099
20
27.297137449727938
30
0
10
104.5256683226875
20
26.71989590726283
30
0
10
104.12349183818311
20
26.171043293115684
30
0
10
103.72131535367873
20
25.622190678968536
30
0
10
103.25526378045896
20
25.092264017033358
30
0
10
102.72533711852378
20
24.58126330731015
30
0
10
102.1954104565886
20
24.07026259758694
30
0
10
101.64182635438846
20
23.571090607996215
30
0
10
101.06458481192335
20
23.083747338537968
30
0
10
100.48734326945825
20
22.596404069079725
30
0
10
99.90537023894015
20
22.113792287674475
30
0
10
99.31866572036905
20
21.635911994322214
30
0
10
98.73196120179796
20
21.158031700969953
30
0
10
98.18074284362432
20
20.677785663591198
30
0
10
97.66501064584813
20
20.195173882185948
30
0
10
97.14927844807193
20
19.712562100780694
30
0
10
96.68795836290514
20
19.222853087295952
30
0
10
96.28105039034777
20
18.726046841731723
30
0
10
95.87414241779041
20
18.229240596167493
30
0
10
95.5571327182399
20
17.711142654364796
30
0
10
95.33002129169624
20
17.171753016323635
30
0
10
98.80766501064585
20
17.171753016323635
30
0
10
102.28530872959546
20
17.171753016323635
30
0
10
105.76295244854506
20
17.171753016323635
30
0
10
105.76295244854506
20
16.447835344215758
30
0
10
105.76295244854506
20
15.723917672107879
30
0
10
105.76295244854506
20
15
30
0
0
SPLINE
5
24
330
C
100
AcDbEntity
8
GRAVARE
100
AcDbSpline
70
8
71
3
72
53
73
49
74
0
42
0.0000001
43
0.0000001
42
0.0000000001
40
0
40
0
40
0
40
0
40
1
40
1
40
1
40
2
40
2
40
2
40
3
40
3
40
3
40
4
40
4
40
4
40
5
40
5
40
5
40
6
40
6
40
6
40
7
40
7
40
7
40
8
40
8
40
8
40
9
40
9
40
9
40
10
40
10
40
10
40
11
40
11
40
11
40
12
40
12
40
12
40
13
40
13
40
13
40
14
40
14
40
14
40
15
40
15
40
15
40
16
40
16
40
16
40
16
10
122.2569198012775
20
25.007097232079488
30
0
10
122.2569198012775
20
23.086113082564466
30
0
10
122.07475751123728
20
21.47030991246747
30
0
10
121.71043293115684
20
20.1596877217885
30
0
10
121.34610835107641
20
18.849065531109535
30
0
10
120.84930210551218
20
17.789212207239178
30
0
10
120.22001419446416
20
16.98012775017743
30
0
10
119.59072628341613
20
16.171043293115684
30
0
10
118.85024840312279
20
15.591436006624082
30
0
10
117.9985805535841
20
15.241305890702625
30
0
10
117.14691270404542
20
14.891175774781168
30
0
10
116.23846699787083
20
14.71611071682044
30
0
10
115.27324343506032
20
14.71611071682044
30
0
10
114.29855689614384
20
14.71611071682044
30
0
10
113.39011118996925
20
14.891175774781168
30
0
10
112.54790631653655
20
15.241305890702625
30
0
10
111.70570144310386
20
15.591436006624082
30
0
10
110.97468653891649
20
16.16867754908919
30
0
10
110.35486160397446
20
16.973030518097943
30
0
10
109.73503666903241
20
17.777383487106693
30
0
10
109.24769339957416
20
18.834871066950555
30
0
10
108.89283179559972
20
20.145493257629525
30
0
10
108.53797019162526
20
21.45611544830849
30
0
10
108.36053938963803
20
23.07665010645848
30
0
10
108.36053938963803
20
25.007097232079488
30
0
10
108.36053938963803
20
27.022711142654362
30
0
10
108.53797019162526
20
28.69056068133428
30
0
10
108.89283179559972
20
30.010645848119232
30
0
10
109.24769339957416
20
31.330731014904185
30
0
10
109.7374024130589
20
32.38348710669506
30
0
10
110.36195883605394
20
33.16891412349184
30
0
10
110.98651525904897
20
33.95434114028862
30
0
10
111.72462739531582
20
34.50555949846226
30
0
10
112.5762952448545
20
34.82256919801277
30
0
10
113.42796309439319
20
35.13957889756328
30
0
10
114.35533475277975
20
35.29808374733854
30
0
10
115.35841022001419
20
35.29808374733854
30
0
10
116.31417080671872
20
35.29808374733854
30
0
10
117.21078779276083
20
35.13957889756328
30
0
10
118.04826117814052
20
34.82256919801277
30
0
10
118.88573456352023
20
34.50555949846226
30
0
10
119.61674946770759
20
33.95434114028862
30
0
10
120.24130589070262
20
33.16891412349184
30
0
10
120.86586231369766
20
32.38348710669506
30
0
10
121.3579370712089
20
31.330731014904185
30
0
10
121.71753016323633
20
30.010645848119232
30
0
10
122.07712325526379
20
28.69056068133428
30
0
10
122.2569198012775
20
27.022711142654362
30
0
10
122.2569198012775
20
25.007097232079488
30
0
0
SPLINE
5
25
330
C
100
AcDbEntity
8
GRAVARE
100
AcDbSpline
70
8
71
3
72
53
73
49
74
0
42
0.0000001
43
0.0000001
42
0.0000000001
40
0
40
0
40
0
40
0
40
1
40
1
40
1
40
2
40
2
40
2
40
3
40
3
40
3
40
4
40
4
40
4
40
5
40
5
40
5
40
6
40
6
40
6
40
7
40
7
40
7
40
8
40
8
40
8
40
9
40
9
40
9
40
10
40
10
40
10
40
11
40
11
40
11
40
12
40
12
40
12
40
13
40
13
40
13
40
14
40
14
40
14
40
15
40
15
40
15
40
16
40
16
40
16
40
16
10
119.65933286018452
20
25.007097232079488
30
0
10
119.65933286018452
20
26.596877217885023
30
0
10
119.56470309912467
20
27.919328128696474
30
0
10
119.37544357700497
20
28.974449964513838
30
0
10
119.18618405488526
20
30.0295718003312
30
0
10
118.9070262597587
20
30.871776673763897
30
0
10
118.53797019162526
20
31.50106458481192
30
0
10
118.16891412349185
20
32.130352495859945
30
0
10
117.71705701443103
20
32.575112372841254
30
0
10
117.18239886444286
20
32.83534421575585
30
0
10
116.64774071445468
20
33.09557605867045
30
0
10
116.03974449964514
20
33.22569198012775
30
0
10
115.35841022001419
20
33.22569198012775
30
0
10
114.6392240359593
20
33.22569198012775
30
0
10
114.0052046368583
20
33.093210314643954
30
0
10
113.45635202271114
20
32.828246983676365
30
0
10
112.907499408564
20
32.563283652708776
30
0
10
112.44617932339722
20
32.11615803170097
30
0
10
112.07239176721079
20
31.486870120652945
30
0
10
111.69860421102436
20
30.85758220960492
30
0
10
111.4170806718713
20
30.015377336172225
30
0
10
111.22782114975159
20
28.96025550035486
30
0
10
111.03856162763189
20
27.905133664537498
30
0
10
110.94393186657204
20
26.58741424177904
30
0
10
110.94393186657204
20
25.007097232079488
30
0
10
110.94393186657204
20
23.474095102909864
30
0
10
111.04092737165838
20
22.182398864442867
30
0
10
111.23491838183108
20
21.132008516678496
30
0
10
111.42890939200377
20
20.081618168914122
30
0
10
111.71279867518334
20
19.237047551454932
30
0
10
112.08658623136976
20
18.59829666430092
30
0
10
112.4603737875562
20
17.959545777146914
30
0
10
112.91696238466999
20
17.500591436006626
30
0
10
113.45635202271114
20
17.221433640880058
30
0
10
113.9957416607523
20
16.94227584575349
30
0
10
114.61083510764135
20
16.802696948190206
30
0
10
115.30163236337827
20
16.802696948190206
30
0
10
115.97350366690324
20
16.802696948190206
30
0
10
116.57913413768631
20
16.94227584575349
30
0
10
117.11852377572747
20
17.221433640880058
30
0
10
117.65791341376863
20
17.500591436006626
30
0
10
118.11450201088242
20
17.959545777146914
30
0
10
118.48828956706885
20
18.59829666430092
30
0
10
118.86207712325526
20
19.237047551454932
30
0
10
119.1506978944878
20
20.081618168914122
30
0
10
119.3541518807665
20
21.132008516678496
30
0
10
119.55760586704518
20
22.182398864442867
30
0
10
119.65933286018452
20
23.474095102909864
30
0
10
119.65933286018452
20
25.007097232079488
30
0
0
SPLINE
5
26
330
C
100
AcDbEntity
8
GRAVARE
100
AcDbSpline
70
8
71
3
72
155
73
151
74
0
42
0.0000001
43
0.0000001
42
0.0000000001
40
0
40
0
40
0
40
0
40
1
40
1
40
1
40
2
40
2
40
2
40
3
40
3
40
3
40
4
40
4
40
4
40
5
40
5
40
5
40
6
40
6
40
6
40
7
40
7
40
7
40
8
40
8
40
8
40
9
40
9
40
9
40
10
40
10
40
10
40
11
40
11
40
11
40
12
40
12
40
12
40
13
40
13
40
13
40
14
40
14
40
14
40
15
40
15
40
15
40
16
40
16
40
16
40
17
40
17
40
17
40
18
40
18
40
18
40
19
40
19
40
19
40
20
40
20
40
20
40
21
40
21
40
21
40
22
40
22
40
22
40
23
40
23
40
23
40
24
40
24
40
24
40
25
40
25
40
25
40
26
40
26
40
26
40
27
40
27
40
27
40
28
40
28
40
28
40
29
40
29
40
29
40
30
40
30
40
30
40
31
40
31
40
31
40
32
40
32
40
32
40
33
40
33
40
33
40
34
40
34
40
34
40
35
40
35
40
35
40
36
40
36
40
36
40
37
40
37
40
37
40
38
40
38
40
38
40
39
40
39
40
39
40
40
40
40
40
40
40
41
40
41
40
41
40
42
40
42
40
42
40
43
40
43
40
43
40
44
40
44
40
44
40
45
40
45
40
45
40
46
40
46
40
46
40
47
40
47
40
47
40
48
40
48
40
48
40
49
40
49
40
49
40
50
40
50
40
50
40
50
10
144.89709013484742
20
15
30
0
10
144.0548852614147
20
15
30
0
10
143.21268038798203
20
15
30
0
10
142.37047551454933
20
15
30
0
10
142.37047551454933
20
18.245800804352967
30
0
10
142.37047551454933
20
21.491601608705935
30
0
10
142.37047551454933
20
24.737402413058906
30
0
10
142.37047551454933
20
25.484977525431745
30
0
10
142.3231606340194
20
26.10953394842678
30
0
10
142.22853087295954
20
26.611071682044003
30
0
10
142.1339011118997
20
27.112609415661225
30
0
10
141.97539626212443
20
27.5171516441921
30
0
10
141.75301632363377
20
27.82469836763662
30
0
10
141.5306363851431
20
28.132245091081142
30
0
10
141.23964986988406
20
28.349893541518806
30
0
10
140.88005677785662
20
28.477643718949608
30
0
10
140.52046368582918
20
28.60539389638041
30
0
10
140.08043529690087
20
28.669268985095812
30
0
10
139.5599716110717
20
28.669268985095812
30
0
10
139.02058197303052
20
28.669268985095812
30
0
10
138.53323870357227
20
28.562810503903478
30
0
10
138.09794180269694
20
28.349893541518806
30
0
10
137.6626449018216
20
28.136976579134135
30
0
10
137.29122308966168
20
27.829429855689614
30
0
10
136.98367636621717
20
27.427253371185238
30
0
10
136.67612964277265
20
27.02507688668086
30
0
10
136.43955524012304
20
26.52827064111663
30
0
10
136.27395315826828
20
25.93683463449255
30
0
10
136.10835107641353
20
25.345398627868466
30
0
10
136.02555003548616
20
24.66643009226402
30
0
10
136.02555003548616
20
23.899929027679207
30
0
10
136.02555003548616
20
20.933286018452804
30
0
10
136.02555003548616
20
17.966643009226402
30
0
10
136.02555003548616
20
15
30
0
10
135.17861367400047
20
15
30
0
10
134.33167731251478
20
15
30
0
10
133.4847409510291
20
15
30
0
10
133.4847409510291
20
19.02649633309676
30
0
10
133.4847409510291
20
23.052992666193518
30
0
10
133.4847409510291
20
27.079488999290277
30
0
10
133.4847409510291
20
27.40123018689378
30
0
10
133.4823752070026
20
27.739531582682755
30
0
10
133.47764371894962
20
28.094393186657204
30
0
10
133.4729122308966
20
28.449254790631652
30
0
10
133.46581499881714
20
28.785190442394132
30
0
10
133.45635202271114
20
29.102200141944643
30
0
10
133.44688904660515
20
29.41920984149515
30
0
10
133.43742607049919
20
29.691270404542227
30
0
10
133.4279630943932
20
29.918381831085874
30
0
10
133.4185001182872
20
30.14549325762952
30
0
10
133.40903714218123
20
30.292169387272295
30
0
10
133.39957416607524
20
30.358410220014193
30
0
10
134.203927135084
20
30.358410220014193
30
0
10
135.00828010409273
20
30.358410220014193
30
0
10
135.8126330731015
20
30.358410220014193
30
0
10
135.8220960492075
20
30.311095339484268
30
0
10
135.83155902531345
20
30.183345162053467
30
0
10
135.84102200141945
20
29.97515968772179
30
0
10
135.85048497752544
20
29.76697421339011
30
0
10
135.86231369765792
20
29.528034066713982
30
0
10
135.8765081618169
20
29.2583392476934
30
0
10
135.89070262597588
20
28.988644428672817
30
0
10
135.90253134610833
20
28.71421812159924
30
0
10
135.91199432221433
20
28.435060326472673
30
0
10
135.92145729832032
20
28.155902531346108
30
0
10
135.9261887863733
20
27.921693872722972
30
0
10
135.9261887863733
20
27.732434350603263
30
0
10
135.94038325053228
20
27.732434350603263
30
0
10
135.95457771469128
20
27.732434350603263
30
0
10
135.96877217885026
20
27.732434350603263
30
0
10
136.1958836053939
20
28.177194227584575
30
0
10
136.4419209841495
20
28.579370712088952
30
0
10
136.7068843151171
20
28.938963804116394
30
0
10
136.97184764608468
20
29.298556896143836
30
0
10
137.28176011355572
20
29.603737875561862
30
0
10
137.63662171753018
20
29.854506742370475
30
0
10
137.99148332150463
20
30.105275609179085
30
0
10
138.39839129406198
20
30.299266619351787
30
0
10
138.85734563520228
20
30.436479772888575
30
0
10
139.31629997634258
20
30.573692926425363
30
0
10
139.84859238230425
20
30.642299503193755
30
0
10
140.4542228530873
20
30.642299503193755
30
0
10
141.6181689141235
20
30.642299503193755
30
0
10
142.53844334043058
20
30.410456588597114
30
0
10
143.21504613200852
20
29.946770759403833
30
0
10
143.89164892358647
20
29.483084930210552
30
0
10
144.36243198485923
20
28.744972793943695
30
0
10
144.62739531582682
20
27.732434350603263
30
0
10
144.6415897799858
20
27.732434350603263
30
0
10
144.6557842441448
20
27.732434350603263
30
0
10
144.66997870830377
20
27.732434350603263
30
0
10
144.89709013484742
20
28.177194227584575
30
0
10
145.152590489709
20
28.579370712088952
30
0
10
145.43647977288856
20
28.938963804116394
30
0
10
145.72036905606814
20
29.298556896143836
30
0
10
146.05157321977762
20
29.603737875561862
30
0
10
146.43009226401705
20
29.854506742370475
30
0
10
146.80861130825645
20
30.105275609179085
30
0
10
147.23444523302578
20
30.299266619351787
30
0
10
147.70759403832506
20
30.436479772888575
30
0
10
148.18074284362433
20
30.573692926425363
30
0
10
148.7201324816655
20
30.642299503193755
30
0
10
149.32576295244854
20
30.642299503193755
30
0
10
150.10172699313935
20
30.642299503193755
30
0
10
150.7712325526378
20
30.538206766027916
30
0
10
151.33427963094394
20
30.330021291696237
30
0
10
151.89732670925008
20
30.12183581736456
30
0
10
152.35864679441684
20
29.80009462976106
30
0
10
152.71823988644428
20
29.364797728885733
30
0
10
153.07783297847172
20
28.929500828010408
30
0
10
153.3427963094393
20
28.36881949373078
30
0
10
153.51312987934705
20
27.68275372604684
30
0
10
153.6834634492548
20
26.9966879583629
30
0
10
153.76863023420867
20
26.18050626922167
30
0
10
153.76863023420867
20
25.23420865862314
30
0
10
153.76863023420867
20
21.822805772415425
30
0
10
153.76863023420867
20
18.411402886207714
30
0
10
153.76863023420867
20
15
30
0
10
152.92642536077597
20
15
30
0
10
152.0842204873433
20
15
30
0
10
151.24201561391058
20
15
30
0
10
151.24201561391058
20
18.245800804352967
30
0
10
151.24201561391058
20
21.491601608705935
30
0
10
151.24201561391058
20
24.737402413058906
30
0
10
151.24201561391058
20
25.484977525431745
30
0
10
151.19470073338064
20
26.10953394842678
30
0
10
151.1000709723208
20
26.611071682044003
30
0
10
151.00544121126094
20
27.112609415661225
30
0
10
150.8469363614857
20
27.5171516441921
30
0
10
150.62455642299503
20
27.82469836763662
30
0
10
150.40217648450437
20
28.132245091081142
30
0
10
150.11118996924532
20
28.349893541518806
30
0
10
149.75159687721788
20
28.477643718949608
30
0
10
149.39200378519044
20
28.60539389638041
30
0
10
148.95197539626213
20
28.669268985095812
30
0
10
148.43151171043294
20
28.669268985095812
30
0
10
147.89212207239177
20
28.669268985095812
30
0
10
147.40477880293352
20
28.56754199195647
30
0
10
146.9694819020582
20
28.364088005677786
30
0
10
146.53418500118286
20
28.1606340193991
30
0
10
146.16276318902294
20
27.86018452803407
30
0
10
145.85521646557842
20
27.462739531582685
30
0
10
145.5476697421339
20
27.065294535131297
30
0
10
145.31109533948427
20
26.568488289567068
30
0
10
145.14549325762954
20
25.972320794889992
30
0
10
144.97989117577478
20
25.376153300212916
30
0
10
144.89709013484742
20
24.685356044475988
30
0
10
144.89709013484742
20
23.899929027679207
30
0
10
144.89709013484742
20
20.933286018452804
30
0
10
144.89709013484742
20
17.966643009226402
30
0
10
144.89709013484742
20
15
30
0
0
SPLINE
5
27
330
C
100
AcDbEntity
8
GRAVARE
100
AcDbSpline
70
8
71
3
72
155
73
151
74
0
42
0.0000001
43
0.0000001
42
0.0000000001
40
0
40
0
40
0
40
0
40
1
40
1
40
1
40
2
40
2
40
2
40
3
40
3
40
3
40
4
40
4
40
4
40
5
40
5
40
5
40
6
40
6
40
6
40
7
40
7
40
7
40
8
40
8
40
8
40
9
40
9
40
9
40
10
40
10
40
10
40
11
40
11
40
11
40
12
40
12
40
12
40
13
40
13
40
13
40
14
40
14
40
14
40
15
40
15
40
15
40
16
40
16
40
16
40
17
40
17
40
17
40
18
40
18
40
18
40
19
40
19
40
19
40
20
40
20
40
20
40
21
40
21
40
21
40
22
40
22
40
22
40
23
40
23
40
23
40
24
40
24
40
24
40
25
40
25
40
25
40
26
40
26
40
26
40
27
40
27
40
27
40
28
40
28
40
28
40
29
40
29
40
29
40
30
40
30
40
30
40
31
40
31
40
31
40
32
40
32
40
32
40
33
40
33
40
33
40
34
40
34
40
34
40
35
40
35
40
35
40
36
40
36
40
36
40
37
40
37
40
37
40
38
40
38
40
38
40
39
40
39
40
39
40
40
40
40
40
40
40
41
40
41
40
41
40
42
40
42
40
42
40
43
40
43
40
43
40
44
40
44
40
44
40
45
40
45
40
45
40
46
40
46
40
46
40
47
40
47
40
47
40
48
40
48
40
48
40
49
40
49
40
49
40
50
40
50
40
50
40
50
10
169.11284599006387
20
15
30
0
10
168.27064111663117
20
15
30
0
10
167.4284362431985
20
15
30
0
10
166.58623136976578
20
15
30
0
10
166.58623136976578
20
18.245800804352967
30
0
10
166.58623136976578
20
21.491601608705935
30
0
10
166.58623136976578
20
24.737402413058906
30
0
10
166.58623136976578
20
25.484977525431745
30
0
10
166.53891648923585
20
26.10953394842678
30
0
10
166.444286728176
20
26.611071682044003
30
0
10
166.34965696711615
20
27.112609415661225
30
0
10
166.1911521173409
20
27.5171516441921
30
0
10
165.96877217885023
20
27.82469836763662
30
0
10
165.74639224035957
20
28.132245091081142
30
0
10
165.45540572510052
20
28.349893541518806
30
0
10
165.09581263307308
20
28.477643718949608
30
0
10
164.73621954104564
20
28.60539389638041
30
0
10
164.29619115211733
20
28.669268985095812
30
0
10
163.77572746628815
20
28.669268985095812
30
0
10
163.23633782824697
20
28.669268985095812
30
0
10
162.74899455878872
20
28.562810503903478
30
0
10
162.3136976579134
20
28.349893541518806
30
0
10
161.87840075703807
20
28.136976579134135
30
0
10
161.50697894487814
20
27.829429855689614
30
0
10
161.19943222143363
20
27.427253371185238
30
0
10
160.8918854979891
20
27.02507688668086
30
0
10
160.6553110953395
20
26.52827064111663
30
0
10
160.48970901348474
20
25.93683463449255
30
0
10
160.32410693162998
20
25.345398627868466
30
0
10
160.24130589070262
20
24.66643009226402
30
0
10
160.24130589070262
20
23.899929027679207
30
0
10
160.24130589070262
20
20.933286018452804
30
0
10
160.24130589070262
20
17.966643009226402
30
0
10
160.24130589070262
20
15
30
0
10
159.39436952921693
20
15
30
0
10
158.54743316773124
20
15
30
0
10
157.70049680624555
20
15
30
0
10
157.70049680624555
20
19.02649633309676
30
0
10
157.70049680624555
20
23.052992666193518
30
0
10
157.70049680624555
20
27.079488999290277
30
0
10
157.70049680624555
20
27.40123018689378
30
0
10
157.69813106221906
20
27.739531582682755
30
0
10
157.69339957416608
20
28.094393186657204
30
0
10
157.68866808611307
20
28.449254790631652
30
0
10
157.6815708540336
20
28.785190442394132
30
0
10
157.6721078779276
20
29.102200141944643
30
0
10
157.6626449018216
20
29.41920984149515
30
0
10
157.65318192571564
20
29.691270404542227
30
0
10
157.64371894960965
20
29.918381831085874
30
0
10
157.63425597350366
20
30.14549325762952
30
0
10
157.6247929973977
20
30.292169387272295
30
0
10
157.6153300212917
20
30.358410220014193
30
0
10
158.41968299030046
20
30.358410220014193
30
0
10
159.2240359593092
20
30.358410220014193
30
0
10
160.02838892831795
20
30.358410220014193
30
0
10
160.03785190442395
20
30.311095339484268
30
0
10
160.0473148805299
20
30.183345162053467
30
0
10
160.0567778566359
20
29.97515968772179
30
0
10
160.0662408327419
20
29.76697421339011
30
0
10
160.07806955287438
20
29.528034066713982
30
0
10
160.09226401703336
20
29.2583392476934
30
0
10
160.10645848119233
20
28.988644428672817
30
0
10
160.1182872013248
20
28.71421812159924
30
0
10
160.12775017743078
20
28.435060326472673
30
0
10
160.13721315353678
20
28.155902531346108
30
0
10
160.14194464158976
20
27.921693872722972
30
0
10
160.14194464158976
20
27.732434350603263
30
0
10
160.15613910574874
20
27.732434350603263
30
0
10
160.17033356990774
20
27.732434350603263
30
0
10
160.18452803406672
20
27.732434350603263
30
0
10
160.41163946061036
20
28.177194227584575
30
0
10
160.65767683936596
20
28.579370712088952
30
0
10
160.92264017033355
20
28.938963804116394
30
0
10
161.18760350130114
20
29.298556896143836
30
0
10
161.49751596877218
20
29.603737875561862
30
0
10
161.85237757274663
20
29.854506742370475
30
0
10
162.2072391767211
20
30.105275609179085
30
0
10
162.61414714927844
20
30.299266619351787
30
0
10
163.07310149041874
20
30.436479772888575
30
0
10
163.53205583155903
20
30.573692926425363
30
0
10
164.0643482375207
20
30.642299503193755
30
0
10
164.66997870830374
20
30.642299503193755
30
0
10
165.83392476933994
20
30.642299503193755
30
0
10
166.75419919564703
20
30.410456588597114
30
0
10
167.43080198722498
20
29.946770759403833
30
0
10
168.10740477880293
20
29.483084930210552
30
0
10
168.57818784007569
20
28.744972793943695
30
0
10
168.84315117104327
20
27.732434350603263
30
0
10
168.85734563520225
20
27.732434350603263
30
0
10
168.87154009936125
20
27.732434350603263
30
0
10
168.88573456352023
20
27.732434350603263
30
0
10
169.11284599006387
20
28.177194227584575
30
0
10
169.36834634492547
20
28.579370712088952
30
0
10
169.65223562810502
20
28.938963804116394
30
0
10
169.9361249112846
20
29.298556896143836
30
0
10
170.26732907499408
20
29.603737875561862
30
0
10
170.6458481192335
20
29.854506742370475
30
0
10
171.0243671634729
20
30.105275609179085
30
0
10
171.45020108824224
20
30.299266619351787
30
0
10
171.9233498935415
20
30.436479772888575
30
0
10
172.3964986988408
20
30.573692926425363
30
0
10
172.93588833688196
20
30.642299503193755
30
0
10
173.541518807665
20
30.642299503193755
30
0
10
174.3174828483558
20
30.642299503193755
30
0
10
174.98698840785426
20
30.538206766027916
30
0
10
175.5500354861604
20
30.330021291696237
30
0
10
176.11308256446654
20
30.12183581736456
30
0
10
176.5744026496333
20
29.80009462976106
30
0
10
176.93399574166074
20
29.364797728885733
30
0
10
177.29358883368818
20
28.929500828010408
30
0
10
177.55855216465577
20
28.36881949373078
30
0
10
177.7288857345635
20
27.68275372604684
30
0
10
177.89921930447125
20
26.9966879583629
30
0
10
177.98438608942513
20
26.18050626922167
30
0
10
177.98438608942513
20
25.23420865862314
30
0
10
177.98438608942513
20
21.822805772415425
30
0
10
177.98438608942513
20
18.411402886207714
30
0
10
177.98438608942513
20
15
30
0
10
177.14218121599242
20
15
30
0
10
176.29997634255975
20
15
30
0
10
175.45777146912704
20
15
30
0
10
175.45777146912704
20
18.245800804352967
30
0
10
175.45777146912704
20
21.491601608705935
30
0
10
175.45777146912704
20
24.737402413058906
30
0
10
175.45777146912704
20
25.484977525431745
30
0
10
175.4104565885971
20
26.10953394842678
30
0
10
175.31582682753725
20
26.611071682044003
30
0
10
175.2211970664774
20
27.112609415661225
30
0
10
175.06269221670215
20
27.5171516441921
30
0
10
174.84031227821148
20
27.82469836763662
30
0
10
174.61793233972082
20
28.132245091081142
30
0
10
174.32694582446177
20
28.349893541518806
30
0
10
173.96735273243434
20
28.477643718949608
30
0
10
173.6077596404069
20
28.60539389638041
30
0
10
173.16773125147859
20
28.669268985095812
30
0
10
172.6472675656494
20
28.669268985095812
30
0
10
172.10787792760823
20
28.669268985095812
30
0
10
171.62053465814998
20
28.56754199195647
30
0
10
171.18523775727465
20
28.364088005677786
30
0
10
170.74994085639932
20
28.1606340193991
30
0
10
170.3785190442394
20
27.86018452803407
30
0
10
170.07097232079488
20
27.462739531582685
30
0
10
169.76342559735036
20
27.065294535131297
30
0
10
169.52685119470073
20
26.568488289567068
30
0
10
169.361249112846
20
25.972320794889992
30
0
10
169.19564703099124
20
25.376153300212916
30
0
10
169.11284599006387
20
24.685356044475988
30
0
10
169.11284599006387
20
23.899929027679207
30
0
10
169.11284599006387
20
20.933286018452804
30
0
10
169.11284599006387
20
17.966643009226402
30
0
10
169.11284599006387
20
15
30
0
0
ENDSEC
0
SECTION
2
OBJECTS
0
DICTIONARY
5
A
330
0
100
AcDbDictionary
281
1
3
ACAD_GROUP
350
B
0
DICTIONARY
5
B
330
A
100
AcDbDictionary
281
0
0
ENDSEC
0
EOF